<?xml version="1.0" encoding="UTF-8"?>
<svg version="1.1" xmlns="http://www.w3.org/2000/svg" width="600" height="600">
<path d="M0 0 C0.8946698 0.00093658 1.7893396 0.00187317 2.71112061 0.00283813 C23.49215365 0.05010056 42.38188269 2.12490745 62.5625 7.1875 C64.29295586 7.60812596 66.02342431 8.02870011 67.75390625 8.44921875 C76.73100042 10.67419049 85.13338607 13.33028702 93.5625 17.1875 C94.93895812 17.78260572 96.31665964 18.3748403 97.6953125 18.96484375 C119.60741776 28.40511446 139.13734135 40.02507608 157.5625 55.1875 C158.14918457 55.66977051 158.73586914 56.15204102 159.34033203 56.64892578 C171.61137708 66.80277168 182.77656734 77.57269269 192.5625 90.1875 C192.99997559 90.7326123 193.43745117 91.27772461 193.88818359 91.83935547 C217.19784001 120.88527769 232.64392259 155.664694 239.5625 192.1875 C239.89894531 193.86392578 239.89894531 193.86392578 240.2421875 195.57421875 C240.77848312 198.44303299 241.2117336 201.2905822 241.5625 204.1875 C241.68238281 205.15429688 241.80226563 206.12109375 241.92578125 207.1171875 C242.19567634 211.02272817 242.34017736 213.92895114 240.2421875 217.32421875 C235.53933909 222.35394676 230.86304081 224.92827611 224.03125 225.46484375 C213.72451414 225.71845438 207.38451245 224.38353099 199.75 217.125 C198.97317871 216.40026489 198.97317871 216.40026489 198.18066406 215.66088867 C195.73018608 213.35519799 193.39973878 211.0093248 191.12890625 208.5234375 C186.16356526 203.11431393 181.25850424 199.70594837 174.65698242 196.65209961 C167.37944089 193.24276323 160.52023216 189.17264957 153.625 185.0625 C153.04509308 184.718703 152.46518616 184.37490601 151.8677063 184.02069092 C137.42769173 175.45545095 127.02033666 168.85458699 119.75 153.3125 C115.35568473 144.05040054 109.81611328 134.89255108 99.765625 131.2890625 C98.81002686 130.97001953 97.85442871 130.65097656 96.86987305 130.32226562 C93.00990399 128.99790332 89.24788223 127.49189393 85.47265625 125.9453125 C84.75583176 125.6520105 84.03900726 125.3587085 83.30046082 125.05651855 C81.82168383 124.45006965 80.343361 123.84251222 78.86547852 123.23388672 C76.63431879 122.31633231 74.40027 121.40608209 72.16601562 120.49609375 C59.99882673 115.51392214 48.50109922 110.22523183 37.75 102.5625 C27.30619554 94.94403868 27.30619554 94.94403868 15.3125 90.5 C10.84968938 91.31818195 10.50597697 92.03550749 8 95.625 C6.33517551 98.22858015 4.7507357 100.85999165 3.2109375 103.5390625 C-5.09271995 117.28137279 -23.686225 126.68271872 -37.9375 133.3125 C-45.98388224 137.20770579 -52.02474277 142.76773114 -56.875 150.25 C-60.7437485 156.07556328 -65.64154865 159.39896253 -71.4375 163.1875 C-72.48164063 163.88746094 -73.52578125 164.58742187 -74.6015625 165.30859375 C-79.51257955 168.59891843 -84.43479084 171.87232775 -89.37597656 175.1171875 C-106.00293508 185.75351329 -106.00293508 185.75351329 -120.421875 199.0859375 C-123.62056112 202.42100171 -126.04230399 204.01057297 -130.671875 204.59765625 C-135.46207674 204.07590191 -139.30330839 202.55732927 -143.6875 200.625 C-144.52724365 200.26148438 -145.3669873 199.89796875 -146.23217773 199.5234375 C-155.88955297 195.24328432 -164.05488915 189.75155589 -172.1484375 182.984375 C-176.51946672 179.29366734 -176.51946672 179.29366734 -181.90625 178.3203125 C-192.01265211 181.782691 -199.99992231 188.90256779 -207.87792969 195.83837891 C-210.23731384 197.87938655 -212.68419599 199.80767005 -215.125 201.75 C-219.77949799 205.5279575 -223.9921097 209.60959469 -228.1484375 213.92578125 C-230.4375 216.1875 -230.4375 216.1875 -233.1640625 218.35546875 C-235.51005959 219.98609381 -235.51005959 219.98609381 -236.4375 222.1875 C-237.0975 222.1875 -237.7575 222.1875 -238.4375 222.1875 C-238.38019337 199.43676627 -233.63867848 176.38889822 -225.4375 155.1875 C-225.05078125 154.17042969 -224.6640625 153.15335938 -224.265625 152.10546875 C-223.06294557 149.09465141 -221.77052412 146.14302534 -220.4375 143.1875 C-220.13505371 142.5063916 -219.83260742 141.8252832 -219.52099609 141.12353516 C-211.98605216 124.24919772 -202.92472985 108.68532355 -191.4375 94.1875 C-190.80585938 93.36378906 -190.17421875 92.54007812 -189.5234375 91.69140625 C-183.91118968 84.47400936 -177.72994505 77.80942626 -171.4375 71.1875 C-170.65117187 70.35863281 -169.86484375 69.52976562 -169.0546875 68.67578125 C-163.55372486 63.02694327 -157.62365104 58.06695069 -151.4375 53.1875 C-149.99117187 52.01574219 -149.99117187 52.01574219 -148.515625 50.8203125 C-122.38635464 30.06279569 -91.8777817 15.00939533 -59.4375 7.1875 C-57.95048151 6.81656386 -56.46350277 6.44546831 -54.9765625 6.07421875 C-36.57276649 1.55111485 -18.89009077 -0.02539983 0 0 Z " fill="#FEFDFE" transform="translate(297.4375,57.8125)"/>
<path d="M0 0 C0.78890625 0.72574219 1.5778125 1.45148438 2.390625 2.19921875 C4.47666886 4.11385691 6.60182046 5.96822958 8.75 7.8125 C38.41913427 33.7207581 63.59779086 72.80255401 73.88671875 110.80859375 C74.50887295 112.86598199 75.26551356 114.88199345 76.05078125 116.8828125 C77.88429391 121.71539186 79.01626742 126.6467582 80.125 131.6875 C80.33930664 132.64962402 80.55361328 133.61174805 80.77441406 134.60302734 C84.64478624 152.22402044 86.85892755 169.22827121 86.875 187.3125 C86.87567474 188.00497833 86.87634949 188.69745667 86.87704468 189.41091919 C86.79020961 246.21809783 68.99300845 301.50411052 33.625 346.25 C30.69053114 344.83208437 28.19167591 343.26667393 25.625 341.25 C26.2009787 337.17909969 28.51866033 334.48405228 30.9375 331.3125 C45.67902534 311.26488919 55.55008865 288.74790491 63.3125 265.25 C63.63283203 264.28449219 63.95316406 263.31898438 64.28320312 262.32421875 C65.06518549 259.96660028 65.84575345 257.60852383 66.625 255.25 C61.37978089 256.36600407 57.70348547 257.4547659 53.375 260.75 C46.05720339 266.25 46.05720339 266.25 41.625 266.25 C41.67720703 264.98542969 41.67720703 264.98542969 41.73046875 263.6953125 C41.75753906 262.59960938 41.78460938 261.50390625 41.8125 260.375 C41.84730469 259.28445313 41.88210938 258.19390625 41.91796875 257.0703125 C41.82128906 256.13960938 41.72460938 255.20890625 41.625 254.25 C38.3493083 252.06620554 37.42429471 251.70724361 33.625 252.25 C30.23869046 254.38872181 27.90729086 257.07924924 25.375 260.125 C21.08943768 265.1530172 15.93161777 269.14779408 9.625 271.25 C7.87396203 271.38726694 6.11877768 271.4746065 4.36328125 271.53125 C3.32623047 271.56863281 2.28917969 271.60601562 1.22070312 271.64453125 C0.13724609 271.67933594 -0.94621094 271.71414063 -2.0625 271.75 C-15.05458222 271.3628624 -15.05458222 271.3628624 -26.375 276.25 C-27.035 276.25 -27.695 276.25 -28.375 276.25 C-28.12589331 269.27501274 -26.23080079 265.27216656 -21.375 260.25 C-19.34403549 258.58076571 -17.28652351 257.04674749 -15.109375 255.57421875 C-12.84547708 253.84570209 -11.5161284 252.18559826 -11.08447266 249.32397461 C-10.32672242 233.59458829 -10.32672242 233.59458829 -17.3515625 220.13671875 C-21.50618131 216.36734641 -24.24164436 214.10671475 -29.9375 214.125 C-31.14599609 214.12113281 -31.14599609 214.12113281 -32.37890625 214.1171875 C-34.37442021 214.02988609 -34.37442021 214.02988609 -35.375 215.25 C-34.99556512 219.34789669 -34.68194043 221.78958935 -32.375 225.25 C-32.375 226.24 -32.375 227.23 -32.375 228.25 C-34.04111905 228.292721 -35.70882885 228.29063832 -37.375 228.25 C-37.705 227.92 -38.035 227.59 -38.375 227.25 C-40.33401454 227.36382653 -42.2922338 227.49141125 -44.25 227.625 C-52.07495643 227.65917012 -56.40686838 225.08340703 -62.375 220.25 C-63.31472656 219.48945313 -64.25445312 218.72890625 -65.22265625 217.9453125 C-71.68094664 212.38425365 -76.73006724 206.37574912 -81.375 199.25 C-81.8803125 198.53457031 -82.385625 197.81914062 -82.90625 197.08203125 C-86.64964225 191.28194966 -87.12606306 185.61293407 -87.86328125 178.8359375 C-88.9321648 171.34559322 -92.43972983 165.75762908 -96.91015625 159.78125 C-100.24802856 154.01340666 -101.56420303 147.7309806 -102.60107422 141.21166992 C-104.23065602 131.41124132 -106.81118437 125.9370046 -114.375 119.25 C-116.28678214 117.44356308 -118.17667372 115.61763762 -120.05517578 113.77661133 C-121.33520887 112.52501985 -122.63026238 111.28857852 -123.94091797 110.0690918 C-124.53018066 109.50230713 -125.11944336 108.93552246 -125.7265625 108.3515625 C-126.52827881 107.59866943 -126.52827881 107.59866943 -127.34619141 106.83056641 C-128.375 105.25 -128.375 105.25 -128.04052734 103.05615234 C-127.82090332 102.46012207 -127.6012793 101.8640918 -127.375 101.25 C-120.25108121 100.80607628 -115.83290641 101.89173383 -109.5625 105.1875 C-108.09916589 105.92876898 -106.63436808 106.66715709 -105.16796875 107.40234375 C-104.5339917 107.73226318 -103.90001465 108.06218262 -103.24682617 108.40209961 C-101.30997207 109.27945637 -99.44869226 109.79769903 -97.375 110.25 C-102.73721983 100.55093779 -112.77329617 93.75409456 -123 89.875 C-128.6881393 87.13626626 -133.23993285 83.35087185 -135.453125 77.3046875 C-135.73671875 76.27601563 -136.0203125 75.24734375 -136.3125 74.1875 C-138.17237192 67.61982729 -141.50929106 64.55378885 -147.375 61.25 C-150.03933288 59.91151997 -151.9131794 59.26718402 -154.89453125 59.15625 C-158.80465023 60.88039695 -160.05364794 64.11076344 -162.0625 67.75 C-169.90579245 80.92250499 -180.60366966 87.55850209 -193.546875 95.33203125 C-202.97068374 101.00350827 -210.68584736 106.97332312 -216.8125 116.25 C-222.61169297 124.8163878 -230.2769048 130.31872314 -238.98168945 135.66430664 C-245.31637683 139.65618017 -250.54399712 144.6485699 -255.90380859 149.83935547 C-258.03516416 151.88299511 -260.23361368 153.84763165 -262.4375 155.8125 C-265.04897806 158.14222439 -267.628323 160.49021398 -270.16796875 162.8984375 C-275.84207834 168.27036997 -281.63971712 173.02953357 -288.07519531 177.46484375 C-292.97241133 180.86877475 -297.49201424 184.61042881 -301.93725586 188.58398438 C-306.82766935 192.88149989 -311.80248794 195.23331517 -318 197.0625 C-319.11632812 197.39636719 -320.23265625 197.73023438 -321.3828125 198.07421875 C-322.71350588 198.46626732 -324.04423874 198.85818189 -325.375 199.25 C-327.97900963 200.02214904 -330.58236135 200.79643625 -333.18505859 201.57299805 C-334.95021293 202.09927614 -336.71614192 202.62296442 -338.48291016 203.14379883 C-341.83014642 204.13889647 -345.08842352 205.13309198 -348.32421875 206.453125 C-350.76546814 207.40172476 -351.95549073 207.14611455 -354.375 206.25 C-353.83479192 202.2884741 -352.78612696 200.07064699 -350.25 197 C-349.62609375 196.22914063 -349.0021875 195.45828125 -348.359375 194.6640625 C-347.70453125 193.86742187 -347.0496875 193.07078125 -346.375 192.25 C-345.07699964 190.63005467 -343.78506431 189.00522621 -342.5 187.375 C-341.63761719 186.29605469 -341.63761719 186.29605469 -340.7578125 185.1953125 C-336.7410248 179.54457725 -337.49850185 170.86169474 -338.375 164.25 C-340.05390991 162.33492629 -341.46438039 161.66212829 -343.75 160.59765625 C-345.375 159.25 -345.375 159.25 -346.0625 156.30859375 C-346.28739963 153.27596281 -346.40894126 150.29016691 -346.375 147.25 C-351.33238811 146.71885127 -354.2495971 146.72530368 -358.3125 149.75 C-359.6825602 150.8979606 -361.03613005 152.0658101 -362.375 153.25 C-363.096875 153.84167969 -363.81875 154.43335938 -364.5625 155.04296875 C-370.64072919 160.16092215 -375.5410702 165.96503266 -380.375 172.25 C-381.44814453 173.63445312 -381.44814453 173.63445312 -382.54296875 175.046875 C-396.49672755 193.58207431 -401.6905371 216.35471605 -402.375 239.25 C-388.08284674 236.65142668 -375.90915873 229.3212368 -363.55859375 222.01171875 C-357.57570653 218.70094312 -353.06084078 216.90377321 -346.19140625 216.58984375 C-345.53220688 216.55443985 -344.87300751 216.51903595 -344.1938324 216.4825592 C-342.10878767 216.3718752 -340.02349937 216.27825876 -337.9375 216.1875 C-322.59190497 215.47885731 -311.99129129 212.36248128 -298.20019531 205.69433594 C-296.33952343 204.7977526 -294.47465697 203.91037961 -292.609375 203.0234375 C-291.50819336 202.49153809 -290.40701172 201.95963867 -289.27246094 201.41162109 C-286.375 200.25 -286.375 200.25 -282.375 200.25 C-282.375 200.91 -282.375 201.57 -282.375 202.25 C-283.921875 203.51953125 -283.921875 203.51953125 -286.125 205.0625 C-297.23696096 213.47534111 -308.88283336 225.58066199 -312.375 239.25 C-311.5279248 239.22905273 -310.68084961 239.20810547 -309.80810547 239.18652344 C-306.64359607 239.11805945 -303.47946609 239.06806013 -300.31445312 239.03027344 C-298.94876632 239.01024681 -297.58316431 238.98301668 -296.21777344 238.94824219 C-294.24712898 238.89933568 -292.27584017 238.87908653 -290.3046875 238.859375 C-289.12116699 238.83842773 -287.93764648 238.81748047 -286.71826172 238.79589844 C-282.65642584 239.34760099 -280.54812475 240.700219 -277.375 243.25 C-276.385 244.735 -276.385 244.735 -275.375 246.25 C-276.21587158 246.30776611 -276.21587158 246.30776611 -277.07373047 246.36669922 C-291.9048788 247.51953429 -304.52143606 251.05544802 -318.2265625 256.77734375 C-339.14301453 265.4616172 -355.05204496 265.58380374 -376.73046875 259.91601562 C-384.57574536 257.86515799 -392.33453739 256.31512856 -400.375 255.25 C-399.88580078 256.71759766 -399.88580078 256.71759766 -399.38671875 258.21484375 C-398.51171875 260.83984375 -397.63671875 263.46484375 -396.76171875 266.08984375 C-396.53516602 266.76644043 -396.30861328 267.44303711 -396.07519531 268.14013672 C-395.60359015 269.5612008 -395.13953503 270.98479018 -394.68261719 272.41064453 C-387.40468204 294.90292983 -376.49274725 317.23485971 -361.40625 335.53125 C-360.375 337.25 -360.375 337.25 -360.375 341.25 C-363.1875 343.5625 -363.1875 343.5625 -366.375 345.25 C-370.59043128 343.84485624 -372.06552307 340.79925709 -374.4375 337.25 C-375.16549805 336.17020874 -375.16549805 336.17020874 -375.90820312 335.06860352 C-388.30953869 316.47264763 -399.15255282 296.45633427 -406.375 275.25 C-406.71192871 274.30350586 -406.71192871 274.30350586 -407.05566406 273.33789062 C-412.35926274 258.35222299 -415.55458342 242.87270286 -418.375 227.25 C-418.57512695 226.16372314 -418.77525391 225.07744629 -418.98144531 223.95825195 C-420.53566152 214.53564366 -420.68131753 205.24307694 -420.63574219 195.72045898 C-420.62508521 193.0835839 -420.63566466 190.44740056 -420.6484375 187.81054688 C-420.6628621 171.94690611 -419.35659955 156.36276804 -416.125 140.8125 C-415.91246582 139.769729 -415.69993164 138.72695801 -415.48095703 137.65258789 C-403.70791508 81.81776762 -372.02539371 29.856556 -327.375 -5.75 C-326.30031737 -6.62703605 -325.22611065 -7.50465554 -324.15234375 -8.3828125 C-303.21611279 -25.35410197 -278.97767249 -39.87225462 -253.12109375 -47.828125 C-250.23892513 -48.7517711 -250.23892513 -48.7517711 -247.015625 -50.2109375 C-235.55551691 -55.0556613 -223.18771725 -57.30542194 -211 -59.5 C-209.83637939 -59.71060059 -208.67275879 -59.92120117 -207.47387695 -60.13818359 C-134.22109457 -72.85289641 -55.16851531 -49.60955041 0 0 Z M-220.375 -29.75 C-221.21804687 -29.55422363 -222.06109375 -29.35844727 -222.9296875 -29.15673828 C-267.89649804 -18.51215158 -305.97913055 3.53380446 -339.375 35.25 C-340.20257813 36.03503906 -341.03015625 36.82007813 -341.8828125 37.62890625 C-347.53303957 43.1314793 -352.49320402 49.06308766 -357.375 55.25 C-358.16777344 56.22582031 -358.96054687 57.20164062 -359.77734375 58.20703125 C-374.21188431 76.33571963 -386.113705 97.24269055 -393.375 119.25 C-394.34565265 121.73993505 -395.3527363 124.20997938 -396.3828125 126.67578125 C-399.65490833 135.16519524 -401.71050011 143.70446102 -403.5 152.625 C-403.63295471 153.28220032 -403.76590942 153.93940063 -403.90289307 154.61651611 C-406.08372791 165.49686692 -407.34704627 176.15237023 -407.375 187.25 C-406.715 187.25 -406.055 187.25 -405.375 187.25 C-404.83875 186.569375 -404.3025 185.88875 -403.75 185.1875 C-401.31667216 182.17785767 -398.75799316 179.8866633 -395.82421875 177.38671875 C-393.4574415 175.32192265 -391.16682343 173.18894306 -388.88208008 171.03417969 C-378.55434948 161.32595843 -367.66188213 152.39305181 -355.375 145.25 C-354.69695312 144.83878906 -354.01890625 144.42757812 -353.3203125 144.00390625 C-350.80997586 143.03102478 -349.86775845 143.26318568 -347.375 144.25 C-342.30281927 147.06960429 -337.37737463 150.15280591 -333.1875 154.1875 C-327.57708611 159.24229319 -320.16586637 162.1128012 -313.375 165.25 C-312.37984375 165.71148437 -311.3846875 166.17296875 -310.359375 166.6484375 C-305.60553064 168.7045481 -301.60673142 170.21883915 -296.375 169.25 C-291.63114758 166.65264279 -287.99397696 162.88967189 -284.3046875 158.99609375 C-279.44529409 154.11338081 -274.15995431 150.45131502 -268.375 146.75 C-266.26125449 145.36398901 -264.14798958 143.97724486 -262.03515625 142.58984375 C-260.37883438 141.51008186 -258.72250798 140.4303267 -257.06573486 139.35125732 C-253.07056528 136.7490103 -249.07722158 134.14476013 -245.10742188 131.50390625 C-242.96758595 130.08073144 -240.81953121 128.66980972 -238.66210938 127.2734375 C-232.23766529 122.98485778 -227.74688728 118.59611995 -223.375 112.25 C-216.86219198 103.61602141 -208.4161499 98.56135661 -198.6875 94 C-193.5716712 91.53464171 -188.90998261 88.44778192 -184.1875 85.3125 C-183.42671143 84.81008789 -182.66592285 84.30767578 -181.88208008 83.79003906 C-174.07978858 78.54254045 -168.14211495 73.81024602 -163.5625 65.5 C-159.54933481 58.42433481 -159.54933481 58.42433481 -157.375 56.25 C-147.63963989 55.05791509 -140.73893551 60.53470858 -133.33203125 66.09765625 C-121.00874211 75.06744795 -107.61902051 81.30621734 -93.55297852 86.96166992 C-91.44292297 87.81031892 -89.33555737 88.66538378 -87.22851562 89.52148438 C-80.4157549 92.27912086 -73.61793182 94.95618463 -66.6315918 97.25341797 C-55.79546409 102.03899335 -49.70582487 115.95558727 -45.22265625 126.1328125 C-40.22126237 134.57068209 -33.88902041 139.72944096 -25.3125 144.25 C-23.44448764 145.27323516 -21.57730411 146.29798483 -19.7109375 147.32421875 C-18.80182617 147.81841309 -17.89271484 148.31260742 -16.95605469 148.82177734 C-12.76141994 151.14287205 -8.69516254 153.66465386 -4.62011719 156.18774414 C-0.71515404 158.56395803 3.24139374 160.39191219 7.4375 162.1875 C16.05113724 166.31772925 22.01548567 173.20117352 28.49609375 180.0703125 C34.01699141 185.83069238 38.84823806 189.9143059 47.015625 190.48828125 C57.44391573 190.73213572 57.44391573 190.73213572 66.625 186.25 C67.22183594 185.84910156 67.81867188 185.44820312 68.43359375 185.03515625 C71.12555162 182.89029374 72.43981988 181.27014406 73.0625 177.83984375 C73.2227712 170.87806369 72.01481622 164.04706995 70.625 157.25 C70.46902344 156.47221191 70.31304688 155.69442383 70.15234375 154.89306641 C61.98917418 114.7650412 43.92745745 76.17453505 15.625 46.25 C14.45251186 44.90087064 13.28561821 43.5468542 12.125 42.1875 C5.85583145 35.02684417 -0.87615943 28.62502888 -8.31640625 22.69140625 C-10.49568942 20.95187626 -12.64305074 19.19500603 -14.77734375 17.40234375 C-24.08020117 9.65837079 -33.84305585 3.20348281 -44.375 -2.75 C-45.20306152 -3.21825195 -46.03112305 -3.68650391 -46.88427734 -4.16894531 C-71.91832255 -18.15141031 -100.00959661 -28.17954225 -128.375 -32.75 C-129.01840332 -32.85441406 -129.66180664 -32.95882812 -130.32470703 -33.06640625 C-142.99605395 -34.99937542 -155.77593472 -34.9596379 -168.5625 -35 C-169.41254608 -35.00526703 -170.26259216 -35.01053406 -171.13839722 -35.01596069 C-187.88249206 -35.09604123 -204.02747178 -33.55690882 -220.375 -29.75 Z " fill="#D0244B" transform="translate(466.375,92.75)"/>
<path d="M0 0 C8.80074537 5.44100136 13.96823765 11.67841197 16.5625 21.6796875 C16.96577125 24.71471247 17.00616478 27.67967505 16.95703125 30.73828125 C16.94936234 31.59312607 16.94169342 32.44797089 16.93379211 33.32872009 C16.71493162 43.18542296 15.26061659 52.86083814 13.74234009 62.58737183 C12.90061836 67.98095438 12.10551794 73.38147195 11.3046875 78.78125 C11.14799088 79.82935349 10.99129425 80.87745697 10.82984924 81.95732117 C9.66140388 89.82939572 8.68083744 97.69895875 7.875 105.6171875 C6.90879457 115.01533137 5.61040236 124.31849603 4.12133789 133.64770508 C2.71323804 142.51650121 1.48555775 151.40239285 0.3125 160.3046875 C0.22364532 160.97859528 0.13479065 161.65250305 0.04324341 162.34683228 C-0.45398 166.12397944 -0.94741337 169.9016081 -1.4375 173.6796875 C-10.64657554 172.55157575 -18.99075682 169.3962545 -27.4375 165.6796875 C-29.43356143 165.00131944 -31.43307821 164.33293917 -33.4375 163.6796875 C-32.91728164 153.55369146 -31.6227595 143.77555208 -29.875 133.8046875 C-29.63805325 132.42328305 -29.40172235 131.04177282 -29.16601562 129.66015625 C-28.59584971 126.33224904 -28.01960155 123.00552392 -27.4375 119.6796875 C-29.18740234 119.50953125 -29.18740234 119.50953125 -30.97265625 119.3359375 C-35.14469401 118.80813303 -38.95843935 117.69172031 -42.875 116.1796875 C-43.55530273 115.91905518 -44.23560547 115.65842285 -44.93652344 115.38989258 C-61.41273301 108.8622577 -75.36943932 99.63311948 -88.4375 87.6796875 C-93.71936564 89.18446375 -96.91545787 92.64432172 -100.75 96.3671875 C-102.08644288 97.64015987 -103.42367463 98.91230458 -104.76171875 100.18359375 C-105.39770996 100.79090332 -106.03370117 101.39821289 -106.68896484 102.02392578 C-111.40032753 106.48531391 -116.3249591 110.68551492 -121.4375 114.6796875 C-124.64673885 113.22425038 -127.15806003 111.41555041 -129.875 109.1796875 C-134.05600231 105.77988891 -138.28607888 102.45778852 -142.5625 99.1796875 C-143.14314209 98.73431641 -143.72378418 98.28894531 -144.32202148 97.83007812 C-145.69322991 96.77914142 -147.06527141 95.72929181 -148.4375 94.6796875 C-147.20411202 90.97952355 -145.79929556 90.13265716 -142.75 87.7421875 C-138.23271049 84.13890209 -133.80873516 80.45865986 -129.4375 76.6796875 C-125.33572823 73.14298964 -121.20945461 69.65103262 -117 66.2421875 C-112.56510683 62.64332721 -108.24182214 58.93236686 -103.9375 55.1796875 C-98.77894505 50.68225399 -93.55593114 46.28973466 -88.23828125 41.98046875 C-84.36583207 38.79933546 -80.57021217 35.53215195 -76.77148438 32.26367188 C-72.28763525 28.40570355 -67.7864153 24.56936957 -63.26220703 20.75878906 C-60.55571649 18.47834298 -57.86200275 16.18571347 -55.19140625 13.86328125 C-38.20786069 -0.84390902 -22.36442966 -12.11406607 0 0 Z " fill="#D0234B" transform="translate(224.4375,393.3203125)"/>
<path d="M0 0 C2.08719598 1.50644898 4.03353855 3.11423803 5.9921875 4.78515625 C6.95769531 5.59210938 7.92320312 6.3990625 8.91796875 7.23046875 C11.72103229 9.58116345 14.505675 11.95280055 17.28662109 14.32958984 C20.01407635 16.65725778 22.75344818 18.97078697 25.4921875 21.28515625 C28.69855337 23.99620644 31.90366412 26.70865101 35.1015625 29.4296875 C41.1434303 34.56499183 47.2335023 39.63478546 53.3671875 44.66015625 C60.1622551 50.23180697 66.82953323 55.93336162 73.453125 61.70703125 C82.60438752 69.68149007 91.94114322 77.42935943 101.34521484 85.10327148 C102.380896 85.95127319 102.380896 85.95127319 103.4375 86.81640625 C104.05125488 87.31720703 104.66500977 87.81800781 105.29736328 88.33398438 C106.94767592 89.74704377 108.4783322 91.22791572 109.9921875 92.78515625 C108.59230304 96.06032397 107.01586657 97.87081536 104.25390625 100.09765625 C103.51591797 100.69835937 102.77792969 101.2990625 102.01757812 101.91796875 C101.24607422 102.53414063 100.47457031 103.1503125 99.6796875 103.78515625 C98.91978516 104.40132813 98.15988281 105.0175 97.37695312 105.65234375 C95.25464094 107.37084501 93.12522323 109.07999388 90.9921875 110.78515625 C89.98800781 111.58953125 88.98382813 112.39390625 87.94921875 113.22265625 C86.98048828 113.99609375 86.98048828 113.99609375 85.9921875 114.78515625 C81.42064334 113.53837148 79.03858623 111.01805686 75.8671875 107.703125 C73.42808009 105.20812138 70.8184804 102.95822565 68.171875 100.6875 C66.5701655 99.28959225 64.99571414 97.86029489 63.4375 96.4140625 C62.56867188 95.60839844 61.69984375 94.80273438 60.8046875 93.97265625 C60.00675781 93.22371094 59.20882812 92.47476563 58.38671875 91.703125 C55.98206784 89.77705062 53.89712859 88.76034962 50.9921875 87.78515625 C50.20457031 88.48640625 49.41695313 89.18765625 48.60546875 89.91015625 C33.9092374 102.79414874 14.80967465 115.51528055 -4.80859375 118.890625 C-5.78610596 119.06102295 -6.76361816 119.2314209 -7.77075195 119.40698242 C-8.50898193 119.53177979 -9.24721191 119.65657715 -10.0078125 119.78515625 C-9.82605469 120.83380859 -9.64429688 121.88246094 -9.45703125 122.96289062 C-8.77940667 126.88297834 -8.11059817 130.80452905 -7.44433594 134.7265625 C-7.15569455 136.41837554 -6.86471772 138.10979195 -6.57128906 139.80078125 C-6.14802583 142.24246304 -5.73340124 144.68548508 -5.3203125 147.12890625 C-5.12344849 148.24815491 -5.12344849 148.24815491 -4.92260742 149.39001465 C-4.11139334 154.25321859 -3.89087157 158.854147 -4.0078125 163.78515625 C-4.79285156 164.03910156 -5.57789063 164.29304687 -6.38671875 164.5546875 C-10.87314392 166.02447341 -15.29498245 167.47790192 -19.6328125 169.34765625 C-24.8171172 171.55578603 -30.32562626 173.78515625 -36.0078125 173.78515625 C-36.62292094 170.01603115 -37.2224613 166.24455383 -37.8203125 162.47265625 C-38.0687793 160.95188477 -38.0687793 160.95188477 -38.32226562 159.40039062 C-39.55645248 151.55282518 -40.47611682 143.69796575 -41.32421875 135.80078125 C-43.08775861 119.47180502 -45.26531871 103.20131583 -47.45166016 86.92456055 C-48.02799019 82.6338964 -48.59947277 78.34260207 -49.16960335 74.05111027 C-49.61398591 70.70950045 -50.06060146 67.36819214 -50.50793076 64.02697563 C-50.71987261 62.44223953 -50.93117807 60.85741817 -51.141819 59.27250862 C-51.43361231 57.07988362 -51.72835881 54.8876757 -52.02392578 52.69555664 C-52.19030548 51.45350967 -52.35668518 50.21146271 -52.52810669 48.93177795 C-52.90165758 46.48147756 -53.37801243 44.17517446 -54.0078125 41.78515625 C-54.24990805 38.55904964 -54.23885677 35.33197797 -54.2578125 32.09765625 C-54.2784375 31.23720703 -54.2990625 30.37675781 -54.3203125 29.49023438 C-54.38224443 19.21727521 -51.64727643 12.51369334 -44.54296875 5.0859375 C-31.8086921 -6.47105625 -14.97069257 -9.05814278 0 0 Z " fill="#D0234A" transform="translate(411.0078125,393.21484375)"/>
<path d="M0 0 C10.89 0 21.78 0 33 0 C33 54.45 33 108.9 33 165 C22.11 165 11.22 165 0 165 C0 110.55 0 56.1 0 0 Z " fill="#D0234B" transform="translate(283,405)"/>
<path d="M0 0 C1.19109375 -0.00386719 1.19109375 -0.00386719 2.40625 -0.0078125 C4.5 0.125 4.5 0.125 6.5 1.125 C6.20738281 1.67285156 5.91476562 2.22070312 5.61328125 2.78515625 C4.40261982 5.32966922 3.56044082 7.88424328 2.6875 10.5625 C0.56060579 16.40952554 -2.03547694 19.20946525 -6.9375 23.01953125 C-7.824375 23.71433594 -8.71125 24.40914062 -9.625 25.125 C-10.47320312 25.764375 -11.32140625 26.40375 -12.1953125 27.0625 C-15.34277647 29.87921352 -17.13438463 32.44793818 -18.0390625 36.59765625 C-18.36435503 46.40079036 -13.78790564 53.86136484 -7.25 60.9375 C-3.70862678 64.21189608 0.30381126 66.60560922 4.40625 69.11328125 C9.83901974 72.64595349 14.8164604 76.75391017 19.85595703 80.81884766 C21.34930126 82.0052735 22.87430859 83.15156968 24.40234375 84.29296875 C34.14968726 91.63645611 38.61860234 100.29576312 42.3515625 111.734375 C44.91459657 119.08916841 48.81254926 123.0652794 55.27734375 127.28515625 C58.48408395 128.49684191 61.67694899 128.46628117 65.0625 128.5625 C81.06383699 129.2952187 81.06383699 129.2952187 86.29296875 133.6015625 C87.5 135.125 87.5 135.125 87.5 137.125 C86.56994141 137.25455078 86.56994141 137.25455078 85.62109375 137.38671875 C80.02637028 138.2743823 75.05672777 139.63441177 69.7734375 141.6875 C60.08131436 145.14868395 50.39881196 144.65351821 40.23852539 144.36889648 C28.59912321 143.91134838 28.59912321 143.91134838 18.48828125 149.10546875 C17.13904273 150.42536005 15.80435362 151.76073489 14.5 153.125 C10.02397933 155.36301034 3.84926319 154.31554624 -1.0625 154.3125 C-2.37831055 154.31169434 -3.69412109 154.31088867 -5.04980469 154.31005859 C-14.68851909 154.24959433 -23.99283976 153.7335627 -33.5 152.125 C-34.45003906 151.96902344 -35.40007812 151.81304687 -36.37890625 151.65234375 C-40.40476652 150.8833592 -43.49679352 149.99763228 -46.5 147.125 C-46.17 146.135 -45.84 145.145 -45.5 144.125 C-42.5525133 142.65125665 -39.5594041 142.74209486 -36.30078125 142.50390625 C-32.90733568 142.04482087 -29.7860893 141.08720585 -26.5 140.125 C-25.12886642 139.80394844 -23.75499635 139.49440686 -22.37890625 139.1953125 C-21.67056641 139.03933594 -20.96222656 138.88335937 -20.23242188 138.72265625 C-18.79114592 138.40871495 -17.34841719 138.10136738 -15.90429688 137.80078125 C-6.71124295 135.7467474 -0.8011887 132.01479206 5.5625 125.125 C9.93007343 120.42826187 13.84911945 117.17266591 19.5 114.125 C21.06430248 110.99639505 20.85627284 108.56897075 20.5 105.125 C18.33815039 102.4749908 16.7484735 101.26717492 13.3046875 100.875 C12.52351563 100.83375 11.74234375 100.7925 10.9375 100.75 C7.31781133 100.46739972 6.76933595 100.39433595 4.0625 97.6875 C2.71592337 94.61730529 2.14431059 92.43195473 1.625 89.1875 C0.23405798 81.17759251 -5.37147156 77.12741819 -11.29296875 72.06640625 C-17.01423603 67.03371627 -22.42742613 61.76313218 -26.875 55.5625 C-36.36266387 42.99413586 -48.1908636 39.56151706 -63.0078125 37.45703125 C-63.83023438 37.34746094 -64.65265625 37.23789063 -65.5 37.125 C-65.995 35.64 -65.995 35.64 -66.5 34.125 C-60.61517814 31.51120236 -54.66052586 29.52265633 -48.51171875 27.6015625 C-39.95716295 24.64623435 -32.27142991 19.92085961 -24.6875 15.0625 C-23.86830078 14.54623047 -23.04910156 14.02996094 -22.20507812 13.49804688 C-18.85186438 11.3666519 -15.65074582 9.24619564 -12.55078125 6.75390625 C-10.5 5.125 -10.5 5.125 -8.5 5.125 C-8.21125 4.485625 -7.9225 3.84625 -7.625 3.1875 C-5.74260773 -0.2635525 -3.64931203 -0.01184842 0 0 Z " fill="#D1264D" transform="translate(293.5,208.875)"/>
<path d="M0 0 C3.1875 1 3.1875 1 5.1875 3 C5.57314079 9.17111437 4.71541312 14.97954369 3.69140625 21.0546875 C3.53840561 21.99627716 3.38540497 22.93786682 3.22776794 23.9079895 C2.74112426 26.89800233 2.24614352 29.88655011 1.75 32.875 C1.25856654 35.85647582 0.76902752 38.83823435 0.28294373 41.82058716 C-0.01865018 43.66885721 -0.32339601 45.51661693 -0.63194275 47.36373901 C-1.59323408 53.22700446 -2.28873608 59.08175974 -2.8125 65 C-17.61086288 64.1462483 -36.50800779 53.74910228 -46.8125 43 C-47.5390625 40.80078125 -47.5390625 40.80078125 -47.8125 39 C-38.42298298 30.51480122 -38.42298298 30.51480122 -33.875 26.5625 C-30.64690488 23.75177475 -27.47511557 20.884201 -24.3125 18 C-20.46221891 14.49007525 -16.60389372 10.99620236 -12.64453125 7.609375 C-11.39741119 6.51382391 -10.18677714 5.37563445 -9.01171875 4.203125 C-4.66399083 0 -4.66399083 0 0 0 Z " fill="#FEFBFB" transform="translate(205.8125,419)"/>
<path d="M0 0 C2.35819417 1.64386668 4.34230318 3.59959972 6.375 5.625 C7.5253464 6.72989099 8.67638492 7.83406186 9.828125 8.9375 C10.37662109 9.46988281 10.92511719 10.00226563 11.49023438 10.55078125 C13.31713771 12.30441938 15.20470404 13.97449769 17.125 15.625 C20.2959585 18.36781221 23.40268033 21.17422616 26.5 24 C34.41001432 31.42396854 34.41001432 31.42396854 43 38 C42.68186467 40.94937964 42.04840372 41.95346481 39.875 44.04296875 C28.04058058 52.87054519 13.81724889 62.11302737 -1 64 C-2.89687373 53.0246389 -4.78211003 42.04734102 -6.64862061 31.06677246 C-6.95807945 29.24657174 -7.26828767 27.42649846 -7.57861328 25.60644531 C-8.01845567 23.00965812 -8.44941529 20.41165541 -8.875 17.8125 C-8.99464111 17.11020264 -9.11428223 16.40790527 -9.23754883 15.68432617 C-9.98107117 11.04861606 -10.22088051 6.67865078 -10 2 C-7.02268399 -1.77890109 -4.36579578 -1.22263271 0 0 Z " fill="#FEFCFC" transform="translate(397,420)"/>
<path d="M0 0 C-1.54683618 1.7015198 -2.6202997 2.86881599 -4.8203125 3.62890625 C-8.24217462 5.78136791 -9.65584708 9.10629981 -11.625 12.5625 C-18.86679817 24.61744451 -28.90953842 32.12598757 -41 39 C-41.66 39 -42.32 39 -43 39 C-42.9765625 36.80859375 -42.9765625 36.80859375 -42 34 C-39.66613664 32.0096255 -37.04030392 30.56618751 -34.375 29.0625 C-25.6096097 24.00181886 -19.17667681 19.30324053 -14.25 10.3125 C-8.19674655 -0.46396679 -8.19674655 -0.46396679 0 0 Z " fill="#D4375B" transform="translate(316,148)"/>
<path d="M0 0 C1.134375 0.020625 2.26875 0.04125 3.4375 0.0625 C1.87625197 1.77987283 0.7519706 2.94195294 -1.4375 3.78125 C-4.51091935 5.63434108 -5.59066115 8.07494516 -7.3125 11.1875 C-7.92609375 12.28320312 -8.5396875 13.37890625 -9.171875 14.5078125 C-9.63078125 15.35085937 -10.0896875 16.19390625 -10.5625 17.0625 C-11.5525 16.7325 -12.5425 16.4025 -13.5625 16.0625 C-12.18186434 12.20504559 -10.38433102 9.13762134 -8 5.8125 C-7.37996094 4.94109375 -6.75992187 4.0696875 -6.12109375 3.171875 C-3.82704034 0.06714106 -3.82704034 0.06714106 0 0 Z " fill="#D64063" transform="translate(312.5625,147.9375)"/>
<path d="M0 0 C-0.99 0.495 -0.99 0.495 -2 1 C-1.34 1.66 -0.68 2.32 0 3 C-1.155 3.20625 -2.31 3.4125 -3.5 3.625 C-8.56611764 4.85534286 -12.07619501 7.6814628 -16 11 C-16.33 9.68 -16.66 8.36 -17 7 C-14.73595458 5.63319847 -12.46498979 4.28155555 -10.1875 2.9375 C-9.54490234 2.54755859 -8.90230469 2.15761719 -8.24023438 1.75585938 C-3.33984375 -1.11328125 -3.33984375 -1.11328125 0 0 Z " fill="#D8496A" transform="translate(118,236)"/>
</svg>
