<svg fill="none" height="100%" width="100%" viewBox="0 0 512 512" xmlns:xlink="http://www.w3.org/1999/xlink" xmlns="http://www.w3.org/2000/svg"><g transform="matrix(1,0,0,1,0,13)" id="i0"><g><g transform="translate(343.375,74.285)"><g transform="rotate(0)"><animateTransform repeatCount="indefinite" type="rotate" attributeName="transform" dur="5s" begin="0s" calcMode="spline" values="0; 360; 360" keyTimes="0; 0.993333; 1" keySplines="0.333 0 0.667 1; 0 0 1 1" fill="freeze" /><g id="i1" transform="scale(0,0)"><animateTransform repeatCount="indefinite" type="scale" attributeName="transform" dur="5s" begin="0s" calcMode="spline" values="0 0; 0 0; 1 1; 1 1; 0 0; 0 0" keyTimes="0; 0.18; 0.24; 0.646666; 0.74; 1" keySplines="0 0 1 1; 0.333 0 0.667 1; 0.333 0 0.667 1; 0.333 0 0.667 1; 0 0 1 1" fill="freeze" /><path fill="#d7dce9" d="M3.716,-2.533C3.716,-2.533,7.112,-1.618,7.112,-1.618C8.766,-1.173,8.766,1.174,7.112,1.619C7.112,1.619,3.716,2.534,3.716,2.534C3.139,2.689,2.688,3.14,2.532,3.717C2.532,3.717,1.618,7.113,1.618,7.113C1.173,8.767,-1.175,8.767,-1.62,7.113C-1.62,7.113,-2.534,3.717,-2.534,3.717C-2.689,3.14,-3.14,2.689,-3.718,2.534C-3.718,2.534,-7.113,1.619,-7.113,1.619C-8.767,1.174,-8.767,-1.173,-7.113,-1.618C-7.113,-1.618,-3.718,-2.533,-3.718,-2.533C-3.14,-2.688,-2.689,-3.139,-2.534,-3.716C-2.534,-3.716,-1.62,-7.113,-1.62,-7.113C-1.175,-8.767,1.173,-8.767,1.618,-7.113C1.618,-7.113,2.532,-3.716,2.532,-3.716C2.688,-3.139,3.139,-2.688,3.716,-2.533Z" /></g></g></g></g><g><g transform="translate(160.708,27.171)"><g transform="rotate(0)"><animateTransform repeatCount="indefinite" type="rotate" attributeName="transform" dur="5s" begin="0s" calcMode="spline" values="0; 360; 360" keyTimes="0; 0.993333; 1" keySplines="0.333 0 0.667 1; 0 0 1 1" fill="freeze" /><g id="i2" transform="scale(0,0)"><animateTransform repeatCount="indefinite" type="scale" attributeName="transform" dur="5s" begin="0s" calcMode="spline" values="0 0; 1 1; 1 1; 0 0; 0 0" keyTimes="0; 0.053333; 0.366667; 0.433333; 1" keySplines="0.333 0 0.667 1; 0.333 0 0.667 1; 0.333 0 0.667 1; 0 0 1 1" fill="freeze" /><path fill="#d7dce9" d="M5.389,-3.674C5.389,-3.674,10.313,-2.347,10.313,-2.347C12.711,-1.701,12.711,1.702,10.313,2.348C10.313,2.348,5.389,3.674,5.389,3.674C4.552,3.899,3.899,4.552,3.673,5.389C3.673,5.389,2.348,10.313,2.348,10.313C1.701,12.712,-1.701,12.712,-2.347,10.313C-2.347,10.313,-3.673,5.389,-3.673,5.389C-3.898,4.552,-4.551,3.899,-5.388,3.674C-5.388,3.674,-10.312,2.348,-10.312,2.348C-12.711,1.702,-12.711,-1.701,-10.312,-2.347C-10.312,-2.347,-5.388,-3.674,-5.388,-3.674C-4.551,-3.899,-3.898,-4.552,-3.673,-5.389C-3.673,-5.389,-2.347,-10.312,-2.347,-10.312C-1.701,-12.711,1.701,-12.711,2.348,-10.312C2.348,-10.312,3.673,-5.389,3.673,-5.389C3.899,-4.552,4.552,-3.899,5.389,-3.674Z" /></g></g></g></g><g><g transform="translate(413.806,212.651)"><g transform="rotate(0)"><animateTransform repeatCount="indefinite" type="rotate" attributeName="transform" dur="5s" begin="0s" calcMode="spline" values="0; 360; 360" keyTimes="0; 0.993333; 1" keySplines="0.333 0 0.667 1; 0 0 1 1" fill="freeze" /><g id="i3" transform="scale(0,0)"><animateTransform repeatCount="indefinite" type="scale" attributeName="transform" dur="5s" begin="0s" calcMode="spline" values="0 0; 0 0; 1 1; 1 1; 0 0; 0 0" keyTimes="0; 0.526667; 0.586666; 0.886667; 0.94; 1" keySplines="0 0 1 1; 0.333 0 0.667 1; 0.333 0 0.667 1; 0.333 0 0.667 1; 0 0 1 1" fill="freeze" /><path fill="#d7dce9" d="M3.716,-2.533C3.716,-2.533,7.112,-1.619,7.112,-1.619C8.767,-1.174,8.767,1.174,7.112,1.619C7.112,1.619,3.716,2.533,3.716,2.533C3.139,2.689,2.689,3.14,2.533,3.717C2.533,3.717,1.619,7.113,1.619,7.113C1.173,8.767,-1.174,8.767,-1.619,7.113C-1.619,7.113,-2.534,3.717,-2.534,3.717C-2.689,3.14,-3.139,2.689,-3.717,2.533C-3.717,2.533,-7.113,1.619,-7.113,1.619C-8.767,1.174,-8.767,-1.174,-7.113,-1.619C-7.113,-1.619,-3.717,-2.533,-3.717,-2.533C-3.139,-2.689,-2.689,-3.139,-2.534,-3.716C-2.534,-3.716,-1.619,-7.113,-1.619,-7.113C-1.174,-8.767,1.173,-8.767,1.619,-7.113C1.619,-7.113,2.533,-3.716,2.533,-3.716C2.689,-3.139,3.139,-2.689,3.716,-2.533Z" /></g></g></g></g></g><g transform="matrix(-0.998,0.063,-0.063,-0.998,547.502,466.496)" id="i4"><g><g transform="translate(343.375,74.285)"><g transform="rotate(0)"><animateTransform repeatCount="indefinite" type="rotate" attributeName="transform" dur="5s" begin="0s" calcMode="spline" values="0; 360; 360" keyTimes="0; 0.993333; 1" keySplines="0.333 0 0.667 1; 0 0 1 1" fill="freeze" /><g id="i1" transform="scale(0,0)"><animateTransform repeatCount="indefinite" type="scale" attributeName="transform" dur="5s" begin="0s" calcMode="spline" values="0 0; 0 0; 1 1; 1 1; 0 0; 0 0" keyTimes="0; 0.006667; 0.066667; 0.473333; 0.566667; 1" keySplines="0 0 1 1; 0.333 0 0.667 1; 0.333 0 0.667 1; 0.333 0 0.667 1; 0 0 1 1" fill="freeze" /><path fill="#d7dce9" d="M3.716,-2.533C3.716,-2.533,7.112,-1.618,7.112,-1.618C8.766,-1.173,8.766,1.174,7.112,1.619C7.112,1.619,3.716,2.534,3.716,2.534C3.139,2.689,2.688,3.14,2.532,3.717C2.532,3.717,1.618,7.113,1.618,7.113C1.173,8.767,-1.175,8.767,-1.62,7.113C-1.62,7.113,-2.534,3.717,-2.534,3.717C-2.689,3.14,-3.14,2.689,-3.718,2.534C-3.718,2.534,-7.113,1.619,-7.113,1.619C-8.767,1.174,-8.767,-1.173,-7.113,-1.618C-7.113,-1.618,-3.718,-2.533,-3.718,-2.533C-3.14,-2.688,-2.689,-3.139,-2.534,-3.716C-2.534,-3.716,-1.62,-7.113,-1.62,-7.113C-1.175,-8.767,1.173,-8.767,1.618,-7.113C1.618,-7.113,2.532,-3.716,2.532,-3.716C2.688,-3.139,3.139,-2.688,3.716,-2.533Z" /></g></g></g></g><g><g transform="translate(160.708,27.171)"><g transform="rotate(0)"><animateTransform repeatCount="indefinite" type="rotate" attributeName="transform" dur="5s" begin="0s" calcMode="spline" values="0; 360; 360" keyTimes="0; 0.993333; 1" keySplines="0.333 0 0.667 1; 0 0 1 1" fill="freeze" /><g id="i2" transform="scale(0,0)"><animateTransform repeatCount="indefinite" type="scale" attributeName="transform" dur="5s" begin="0s" calcMode="spline" values="0 0; 0 0; 1 1; 1 1; 0 0; 0 0" keyTimes="0; 0.473333; 0.526667; 0.84; 0.906667; 1" keySplines="0 0 1 1; 0.333 0 0.667 1; 0.333 0 0.667 1; 0.333 0 0.667 1; 0 0 1 1" fill="freeze" /><path fill="#d7dce9" d="M5.389,-3.674C5.389,-3.674,10.313,-2.347,10.313,-2.347C12.711,-1.701,12.711,1.702,10.313,2.348C10.313,2.348,5.389,3.674,5.389,3.674C4.552,3.899,3.899,4.552,3.673,5.389C3.673,5.389,2.348,10.313,2.348,10.313C1.701,12.712,-1.701,12.712,-2.347,10.313C-2.347,10.313,-3.673,5.389,-3.673,5.389C-3.898,4.552,-4.551,3.899,-5.388,3.674C-5.388,3.674,-10.312,2.348,-10.312,2.348C-12.711,1.702,-12.711,-1.701,-10.312,-2.347C-10.312,-2.347,-5.388,-3.674,-5.388,-3.674C-4.551,-3.899,-3.898,-4.552,-3.673,-5.389C-3.673,-5.389,-2.347,-10.312,-2.347,-10.312C-1.701,-12.711,1.701,-12.711,2.348,-10.312C2.348,-10.312,3.673,-5.389,3.673,-5.389C3.899,-4.552,4.552,-3.899,5.389,-3.674Z" /></g></g></g></g><g><g transform="translate(413.806,212.651)"><g transform="rotate(0)"><animateTransform repeatCount="indefinite" type="rotate" attributeName="transform" dur="5s" begin="0s" calcMode="spline" values="0; 360; 360" keyTimes="0; 0.993333; 1" keySplines="0.333 0 0.667 1; 0 0 1 1" fill="freeze" /><g id="i3" transform="scale(0,0)"><animateTransform repeatCount="indefinite" type="scale" attributeName="transform" dur="5s" begin="0s" calcMode="spline" values="0 0; 0 0; 1 1; 1 1; 0 0; 0 0" keyTimes="0; 0.253333; 0.313333; 0.613334; 0.666667; 1" keySplines="0 0 1 1; 0.333 0 0.667 1; 0.333 0 0.667 1; 0.333 0 0.667 1; 0 0 1 1" fill="freeze" /><path fill="#d7dce9" d="M3.716,-2.533C3.716,-2.533,7.112,-1.619,7.112,-1.619C8.767,-1.174,8.767,1.174,7.112,1.619C7.112,1.619,3.716,2.533,3.716,2.533C3.139,2.689,2.689,3.14,2.533,3.717C2.533,3.717,1.619,7.113,1.619,7.113C1.173,8.767,-1.174,8.767,-1.619,7.113C-1.619,7.113,-2.534,3.717,-2.534,3.717C-2.689,3.14,-3.139,2.689,-3.717,2.533C-3.717,2.533,-7.113,1.619,-7.113,1.619C-8.767,1.174,-8.767,-1.174,-7.113,-1.619C-7.113,-1.619,-3.717,-2.533,-3.717,-2.533C-3.139,-2.689,-2.689,-3.139,-2.534,-3.716C-2.534,-3.716,-1.619,-7.113,-1.619,-7.113C-1.174,-8.767,1.173,-8.767,1.619,-7.113C1.619,-7.113,2.533,-3.716,2.533,-3.716C2.689,-3.139,3.139,-2.689,3.716,-2.533Z" /></g></g></g></g></g><g id="i5"><g transform="translate(256,256)"><animateTransform repeatCount="indefinite" type="translate" attributeName="transform" dur="5s" begin="0s" calcMode="spline" values="256 256; 256 276; 256 256; 256 256" keyTimes="0; 0.466667; 0.993333; 1" keySplines="0.333 0 0.667 1; 0.333 0 0.667 1; 0 0 1 1" fill="freeze" /><g transform="scale(1,1)"><animateTransform repeatCount="indefinite" type="scale" attributeName="transform" dur="5s" begin="0s" calcMode="spline" values="1 1; 0.9 0.9; 1 1; 1 1" keyTimes="0; 0.466667; 0.993333; 1" keySplines="0.333 0 0.667 1; 0.333 0 0.667 1; 0 0 1 1" fill="freeze" /><g transform="translate(-256,-256)"><g id="i6" transform="matrix(1,0,0,1,358.079,96.136)"><path fill="#d7dce9" d="M7.32,0C7.32,-4.042,4.043,-7.32,0,-7.32C-4.042,-7.32,-7.32,-4.042,-7.32,0C-7.32,4.042,-4.042,7.32,0,7.32C4.043,7.32,7.32,4.042,7.32,0Z" /></g><g id="i7" transform="matrix(1,0,0,1,426.184,229.252)"><path fill="#d7dce9" d="M2.972,0C2.972,-1.642,1.641,-2.972,0,-2.972C-1.641,-2.972,-2.972,-1.642,-2.972,0C-2.972,1.642,-1.641,2.972,0,2.972C1.641,2.972,2.972,1.642,2.972,0Z" /></g><g id="i8" transform="matrix(1,0,0,1,219.025,459.081)"><path fill="#d7dce9" d="M11.48,0C11.48,-6.34,6.34,-11.479,0.001,-11.479C-6.339,-11.479,-11.479,-6.34,-11.479,0C-11.479,6.34,-6.339,11.479,0.001,11.479C6.34,11.479,11.48,6.34,11.48,0Z" /></g><g id="i9" transform="matrix(1,0,0,1,254.696,451.232)"><path fill="#d7dce9" d="M4.489,0C4.489,-2.479,2.479,-4.488,0,-4.488C-2.479,-4.488,-4.489,-2.479,-4.489,0C-4.489,2.479,-2.479,4.488,0,4.488C2.479,4.488,4.489,2.479,4.489,0Z" /></g><g id="i10" transform="matrix(1,0,0,1,271.052,58.177)"><path fill="#d7dce9" d="M-5.694,-5.74C-8.864,-2.595,-8.884,2.525,-5.739,5.695C-2.594,8.865,2.525,8.884,5.695,5.739C8.865,2.594,8.884,-2.525,5.74,-5.695C2.595,-8.865,-2.524,-8.885,-5.694,-5.74Z" /></g><g id="i11" transform="matrix(1,0,0,1,446.124,294.794)"><path fill="#d7dce9" d="M-3.781,-3.811C-5.885,-1.722,-5.9,1.676,-3.812,3.781C-1.724,5.885,1.675,5.899,3.78,3.811C5.885,1.722,5.899,-1.675,3.81,-3.781C1.722,-5.885,-1.677,-5.899,-3.781,-3.811Z" /></g><g id="i12" transform="matrix(1,0,0,1,237.888,27.171)"><path fill="#d7dce9" d="M-3.162,-3.187C-4.922,-1.441,-4.933,1.401,-3.186,3.161C-1.44,4.921,1.401,4.932,3.161,3.186C4.921,1.44,4.933,-1.401,3.187,-3.161C1.441,-4.921,-1.401,-4.933,-3.162,-3.187Z" /></g><g id="i13" transform="matrix(1,0,0,1,84.613,284.057)"><path fill="#d7dce9" d="M-0.767,-11.453C-7.093,-11.03,-11.877,-5.559,-11.455,0.766C-11.031,7.092,-5.559,11.877,0.766,11.453C7.092,11.029,11.877,5.56,11.454,-0.766C11.03,-7.093,5.558,-11.877,-0.767,-11.453Z" /></g><g id="i14" transform="matrix(1,0,0,1,48.38,196.76)"><path fill="#d7dce9" d="M-0.299,-4.479C-2.773,-4.313,-4.644,-2.174,-4.478,0.299C-4.313,2.773,-2.173,4.644,0.301,4.478C2.774,4.313,4.644,2.174,4.479,-0.299C4.313,-2.772,2.175,-4.645,-0.299,-4.479Z" /></g></g></g></g></g><g id="i15"><g transform="translate(84.593,116.759)"><animateTransform repeatCount="indefinite" type="translate" attributeName="transform" dur="5s" begin="0s" calcMode="spline" values="84.593 116.759; 93.593 99.759; 84.593 116.759; 84.593 116.759" keyTimes="0; 0.453334; 0.993333; 1" keySplines="0.333 0 0.667 1; 0.333 0 0.667 1; 0 0 1 1" fill="freeze" /><g transform="rotate(17.315) scale(0.786,0.786) translate(-105.603,-329.07)"><g id="i16" transform="matrix(1,0,0,1,105.602,292.108)"><path fill="#ffffff" d="M41.919,14.306C41.919,14.306,-41.919,14.306,-41.919,14.306C-45.737,14.306,-48.833,11.212,-48.833,7.393C-48.833,7.393,-48.833,-7.392,-48.833,-7.392C-48.833,-11.211,-45.737,-14.306,-41.919,-14.306C-41.919,-14.306,41.919,-14.306,41.919,-14.306C45.737,-14.306,48.833,-11.211,48.833,-7.392C48.833,-7.392,48.833,7.393,48.833,7.393C48.833,11.212,45.737,14.306,41.919,14.306Z" /></g><g id="i17" transform="matrix(1,0,0,1,121.304,292.108)"><path fill="#ffffff" d="M-33.132,14.306C-33.132,14.306,26.217,14.306,26.217,14.306C30.035,14.306,33.132,11.212,33.132,7.393C33.132,7.393,33.132,-7.392,33.132,-7.392C33.132,-11.211,30.035,-14.306,26.217,-14.306C26.217,-14.306,14.929,-14.306,14.929,-14.306C14.929,-14.306,-1.091,14.306,-33.132,14.306Z" /></g><g id="i18" transform="matrix(1,0,0,1,105.603,343.376)"><path fill="#d7dce9" d="M42.68,-36.961C42.68,-36.961,-42.68,-36.961,-42.68,-36.961C-42.68,-36.961,-42.68,23.28,-42.68,23.28C-42.68,30.836,-36.554,36.961,-28.999,36.961C-28.999,36.961,28.999,36.961,28.999,36.961C36.555,36.961,42.68,30.836,42.68,23.28C42.68,23.28,42.68,-36.961,42.68,-36.961Z" /></g><g id="i19" transform="matrix(1,0,0,1,115.205,343.376)"><path fill="#d7dce9" d="M33.077,-36.961C33.077,-36.961,-11.989,-36.961,-11.989,-36.961C2.187,-32.608,19.88,-21.347,19.88,-4.602C19.88,26.468,1.523,32.271,-33.077,36.961C-33.077,36.961,19.396,36.961,19.396,36.961C26.952,36.961,33.077,30.836,33.077,23.28C33.077,23.28,33.077,-36.961,33.077,-36.961Z" /></g><g id="i20" transform="matrix(1,0,0,1,64.96,292.109)"><path fill="#ffffff" d="M1.277,7.392C1.277,7.392,1.277,-7.393,1.277,-7.393C1.277,-11.212,4.373,-14.307,8.191,-14.307C8.191,-14.307,-1.277,-14.307,-1.277,-14.307C-5.095,-14.307,-8.191,-11.212,-8.191,-7.393C-8.191,-7.393,-8.191,7.392,-8.191,7.392C-8.191,11.211,-5.095,14.306,-1.277,14.306C-1.277,14.306,8.191,14.306,8.191,14.306C4.373,14.306,1.277,11.211,1.277,7.392Z" /></g><g id="i21" transform="matrix(1,0,0,1,74.497,343.376)"><path fill="#d7dce9" d="M-2.107,23.28C-2.107,23.28,-2.107,-36.961,-2.107,-36.961C-2.107,-36.961,-11.574,-36.961,-11.574,-36.961C-11.574,-36.961,-11.574,23.28,-11.574,23.28C-11.574,30.836,-5.448,36.961,2.107,36.961C2.107,36.961,11.574,36.961,11.574,36.961C4.018,36.961,-2.107,30.836,-2.107,23.28Z" /></g><g id="i22" transform="matrix(1,0,0,1,105.603,343.376)"><path fill="#ffffff" d="M22.158,-8.796C22.158,-8.796,8.797,-8.796,8.797,-8.796C8.797,-8.796,8.797,-22.157,8.797,-22.157C8.797,-22.157,-8.796,-22.157,-8.796,-22.157C-8.796,-22.157,-8.796,-8.796,-8.796,-8.796C-8.796,-8.796,-22.158,-8.796,-22.158,-8.796C-22.158,-8.796,-22.158,8.796,-22.158,8.796C-22.158,8.796,-8.796,8.796,-8.796,8.796C-8.796,8.796,-8.796,22.157,-8.796,22.157C-8.796,22.157,8.797,22.157,8.797,22.157C8.797,22.157,8.797,8.796,8.797,8.796C8.797,8.796,22.158,8.796,22.158,8.796C22.158,8.796,22.158,-8.796,22.158,-8.796Z" /></g><g id="i23" transform="matrix(1,0,0,1,105.602,292.108)"><path stroke-linejoin="round" stroke-linecap="round" stroke-width="4" stroke="#2c3447" d="M41.919,14.306C41.919,14.306,-41.919,14.306,-41.919,14.306C-45.737,14.306,-48.833,11.212,-48.833,7.393C-48.833,7.393,-48.833,-7.392,-48.833,-7.392C-48.833,-11.211,-45.737,-14.306,-41.919,-14.306C-41.919,-14.306,41.919,-14.306,41.919,-14.306C45.737,-14.306,48.833,-11.211,48.833,-7.392C48.833,-7.392,48.833,7.393,48.833,7.393C48.833,11.212,45.737,14.306,41.919,14.306Z" /></g><g id="i24" transform="matrix(1,0,0,1,105.603,343.376)"><path stroke-linejoin="round" stroke-linecap="round" stroke-width="4" stroke="#2c3447" d="M42.68,-36.961C42.68,-36.961,-42.68,-36.961,-42.68,-36.961C-42.68,-36.961,-42.68,23.28,-42.68,23.28C-42.68,30.836,-36.554,36.961,-28.999,36.961C-28.999,36.961,28.999,36.961,28.999,36.961C36.555,36.961,42.68,30.836,42.68,23.28C42.68,23.28,42.68,-36.961,42.68,-36.961Z" /></g><g id="i25" transform="matrix(1,0,0,1,105.603,343.376)"><path stroke-linejoin="round" stroke-linecap="round" stroke-width="4" stroke="#2c3447" d="M22.158,-8.796C22.158,-8.796,8.797,-8.796,8.797,-8.796C8.797,-8.796,8.797,-22.157,8.797,-22.157C8.797,-22.157,-8.796,-22.157,-8.796,-22.157C-8.796,-22.157,-8.796,-8.796,-8.796,-8.796C-8.796,-8.796,-22.158,-8.796,-22.158,-8.796C-22.158,-8.796,-22.158,8.796,-22.158,8.796C-22.158,8.796,-8.796,8.796,-8.796,8.796C-8.796,8.796,-8.796,22.157,-8.796,22.157C-8.796,22.157,8.797,22.157,8.797,22.157C8.797,22.157,8.797,8.796,8.797,8.796C8.797,8.796,22.158,8.796,22.158,8.796C22.158,8.796,22.158,-8.796,22.158,-8.796Z" /></g><g id="i26"><path stroke-linejoin="round" stroke-linecap="round" stroke-width="4" stroke="#ffffff" d="M67.056,284.05C67.056,284.05,67.056,300.873,67.056,300.873" /></g><g id="i27"><path stroke-linejoin="round" stroke-linecap="round" stroke-width="4" stroke="#ffffff" d="M76.898,284.05C76.898,284.05,76.898,300.873,76.898,300.873" /></g><g id="i28"><path stroke-linejoin="round" stroke-linecap="round" stroke-width="4" stroke="#ffffff" d="M86.739,284.05C86.739,284.05,86.739,300.873,86.739,300.873" /></g><g id="i29"><path stroke-linejoin="round" stroke-linecap="round" stroke-width="4" stroke="#ffffff" d="M96.58,284.05C96.58,284.05,96.58,300.873,96.58,300.873" /></g><g id="i30"><path stroke-linejoin="round" stroke-linecap="round" stroke-width="4" stroke="#ffffff" d="M106.422,284.05C106.422,284.05,106.422,300.873,106.422,300.873" /></g><g id="i31"><path stroke-linejoin="round" stroke-linecap="round" stroke-width="4" stroke="#ffffff" d="M116.264,284.05C116.264,284.05,116.264,300.873,116.264,300.873" /></g><g id="i1"><path stroke-linejoin="round" stroke-linecap="round" stroke-width="4" stroke="#ffffff" d="M126.105,284.05C126.105,284.05,126.105,300.873,126.105,300.873" /></g><g id="i2"><path stroke-linejoin="round" stroke-linecap="round" stroke-width="4" stroke="#ffffff" d="M135.947,284.05C135.947,284.05,135.947,300.873,135.947,300.873" /></g><g id="i3"><path stroke-linejoin="round" stroke-linecap="round" stroke-width="4" stroke="#ffffff" d="M145.788,284.05C145.788,284.05,145.788,300.873,145.788,300.873" /></g><g id="i6"><path stroke-linejoin="round" stroke-linecap="round" stroke-width="4" stroke="#d7dce9" d="M66.236,283.697C66.236,283.697,66.236,300.52,66.236,300.52" /></g><g id="i7"><path stroke-linejoin="round" stroke-linecap="round" stroke-width="4" stroke="#d7dce9" d="M76.078,283.697C76.078,283.697,76.078,300.52,76.078,300.52" /></g><g id="i8"><path stroke-linejoin="round" stroke-linecap="round" stroke-width="4" stroke="#d7dce9" d="M85.92,283.697C85.92,283.697,85.92,300.52,85.92,300.52" /></g><g id="i9"><path stroke-linejoin="round" stroke-linecap="round" stroke-width="4" stroke="#d7dce9" d="M95.761,283.697C95.761,283.697,95.761,300.52,95.761,300.52" /></g><g id="i10"><path stroke-linejoin="round" stroke-linecap="round" stroke-width="4" stroke="#d7dce9" d="M105.603,283.697C105.603,283.697,105.603,300.52,105.603,300.52" /></g><g id="i11"><path stroke-linejoin="round" stroke-linecap="round" stroke-width="4" stroke="#d7dce9" d="M115.444,283.697C115.444,283.697,115.444,300.52,115.444,300.52" /></g><g id="i12"><path stroke-linejoin="round" stroke-linecap="round" stroke-width="4" stroke="#d7dce9" d="M125.286,283.697C125.286,283.697,125.286,300.52,125.286,300.52" /></g><g id="i13"><path stroke-linejoin="round" stroke-linecap="round" stroke-width="4" stroke="#d7dce9" d="M135.128,283.697C135.128,283.697,135.128,300.52,135.128,300.52" /></g><g id="i14"><path stroke-linejoin="round" stroke-linecap="round" stroke-width="4" stroke="#d7dce9" d="M144.969,283.697C144.969,283.697,144.969,300.52,144.969,300.52" /></g></g></g></g><g id="i32"><g transform="translate(121.609,383.199)"><animateTransform repeatCount="indefinite" type="translate" attributeName="transform" dur="5s" begin="0s" calcMode="spline" values="121.609 383.199; 118.609 361.199; 121.609 383.199; 121.609 383.199" keyTimes="0; 0.453334; 0.993333; 1" keySplines="0.333 0 0.667 1; 0.333 0 0.667 1; 0 0 1 1" fill="freeze" /><g transform="rotate(-39.284) scale(1.165,1.165) translate(-77.463,-178.597)"><g id="i2" transform="matrix(1,0,0,1,77.464,178.597)"><path stroke-linejoin="round" stroke-linecap="round" stroke-width="4" stroke="#2c3447" fill="#d7dce9" d="M21.091,49.036C21.091,49.036,-27.984,45.165,-27.984,45.165C-32.814,44.785,-36.432,40.578,-36.085,35.745C-36.085,35.745,-30.579,-40.879,-30.579,-40.879C-30.228,-45.759,-25.97,-49.421,-21.092,-49.036C-21.092,-49.036,27.984,-45.166,27.984,-45.166C32.814,-44.785,36.432,-40.578,36.084,-35.745C36.084,-35.745,30.578,40.879,30.578,40.879C30.228,45.76,25.969,49.421,21.091,49.036Z" /></g><g id="i3" transform="matrix(1,0,0,1,77.463,178.597)"><path fill="#ffffff" d="M9.838,52.198C9.838,52.198,-37.342,38.173,-37.342,38.173C-42.035,36.777,-44.692,31.824,-43.26,27.142C-43.26,27.142,-20.781,-46.328,-20.781,-46.328C-19.364,-50.958,-14.478,-53.579,-9.838,-52.199C-9.838,-52.199,37.342,-38.173,37.342,-38.173C42.035,-36.778,44.692,-31.825,43.26,-27.143C43.26,-27.143,20.781,46.328,20.781,46.328C19.364,50.958,14.479,53.578,9.838,52.198Z" /></g><g id="i6" transform="matrix(1,0,0,1,81.525,183.427)"><path fill="#d7dce9" d="M-40.631,33.572C-40.631,33.572,5.775,47.368,5.775,47.368C10.416,48.748,15.302,46.127,16.719,41.497C16.719,41.497,39.198,-31.971,39.198,-31.971C40.631,-36.654,37.973,-41.607,33.28,-43.003C33.28,-43.003,13.95,-48.749,13.95,-48.749C24.573,-40.683,32.555,-27.308,22.166,-1.268C10.15,28.849,-25.672,33.032,-40.631,33.572Z" /></g><g id="i7" transform="matrix(1,0,0,1,77.463,178.597)"><path stroke-linejoin="round" stroke-linecap="round" stroke-width="4" stroke="#2c3447" d="M9.838,52.198C9.838,52.198,-37.342,38.173,-37.342,38.173C-42.035,36.777,-44.692,31.824,-43.26,27.142C-43.26,27.142,-20.781,-46.328,-20.781,-46.328C-19.364,-50.958,-14.478,-53.579,-9.838,-52.199C-9.838,-52.199,37.342,-38.173,37.342,-38.173C42.035,-36.778,44.692,-31.825,43.26,-27.143C43.26,-27.143,20.781,46.328,20.781,46.328C19.364,50.958,14.479,53.578,9.838,52.198Z" /></g><g id="i8" transform="matrix(1,0,0,1,87.753,146.638)"><path stroke-linejoin="round" stroke-linecap="round" stroke-width="4" stroke="#2c3447" d="M-22.795,-7.11C-22.795,-7.11,22.795,7.11,22.795,7.11" /></g><g id="i9" transform="matrix(1,0,0,1,84.802,156.285)"><path stroke-linejoin="round" stroke-linecap="round" stroke-width="4" stroke="#2c3447" d="M-22.794,-7.11C-22.794,-7.11,22.795,7.11,22.795,7.11" /></g><g id="i10" transform="matrix(1,0,0,1,81.852,165.932)"><path stroke-linejoin="round" stroke-linecap="round" stroke-width="4" stroke="#2c3447" d="M-22.795,-7.11C-22.795,-7.11,22.795,7.11,22.795,7.11" /></g><g id="i11" transform="matrix(1,0,0,1,78.901,175.578)"><path stroke-linejoin="round" stroke-linecap="round" stroke-width="4" stroke="#2c3447" d="M-22.794,-7.11C-22.794,-7.11,22.795,7.11,22.795,7.11" /></g><g id="i12" transform="matrix(1,0,0,1,75.95,185.225)"><path stroke-linejoin="round" stroke-linecap="round" stroke-width="4" stroke="#2c3447" d="M-22.795,-7.11C-22.795,-7.11,22.795,7.11,22.795,7.11" /></g><g id="i13" transform="matrix(1,0,0,1,73,194.872)"><path stroke-linejoin="round" stroke-linecap="round" stroke-width="4" stroke="#2c3447" d="M-22.795,-7.11C-22.795,-7.11,22.794,7.11,22.794,7.11" /></g><g id="i14" transform="matrix(1,0,0,1,70.049,204.519)"><path stroke-linejoin="round" stroke-linecap="round" stroke-width="4" stroke="#2c3447" d="M-22.795,-7.11C-22.795,-7.11,22.795,7.11,22.795,7.11" /></g></g></g></g><g id="i33"><g transform="translate(409.678,374.227)"><animateTransform repeatCount="indefinite" type="translate" attributeName="transform" dur="5s" begin="0s" calcMode="spline" values="409.678 374.227; 407.678 343.227; 409.678 374.227; 409.678 374.227" keyTimes="0; 0.453334; 0.993333; 1" keySplines="0.333 0 0.667 1; 0.333 0 0.667 1; 0 0 1 1" fill="freeze" /><g transform="rotate(-41.216) scale(1,1) translate(-425.74,-346.559)"><g id="i8" transform="matrix(1,0,0,1,425.74,354.267)"><path fill="#d7dce9" d="M48.678,36.66C48.678,36.66,-48.677,36.66,-48.677,36.66C-52.959,36.66,-56.43,33.188,-56.43,28.907C-56.43,28.907,-56.43,-28.906,-56.43,-28.906C-56.43,-33.189,-52.959,-36.66,-48.677,-36.66C-48.677,-36.66,48.678,-36.66,48.678,-36.66C52.959,-36.66,56.43,-33.189,56.43,-28.906C56.43,-28.906,56.43,28.907,56.43,28.907C56.43,33.188,52.959,36.66,48.678,36.66Z" /></g><g id="i9" transform="matrix(1,0,0,1,375.677,354.267)"><path fill="#d7dce9" d="M-1.386,28.906C-1.386,28.906,-1.386,-28.906,-1.386,-28.906C-1.386,-33.189,2.085,-36.66,6.367,-36.66C6.367,-36.66,1.385,-36.66,1.385,-36.66C-2.896,-36.66,-6.367,-33.189,-6.367,-28.906C-6.367,-28.906,-6.367,28.906,-6.367,28.906C-6.367,33.187,-2.896,36.66,1.385,36.66C1.385,36.66,6.367,36.66,6.367,36.66C2.085,36.66,-1.386,33.187,-1.386,28.906Z" /></g><g id="i10" transform="matrix(1,0,0,1,435.48,354.267)"><path fill="#d7dce9" d="M38.938,-36.659C38.938,-36.659,24.038,-36.659,24.038,-36.659C23.643,-15.931,16.425,36.659,-46.689,36.659C-46.689,36.659,38.938,36.659,38.938,36.659C43.219,36.659,46.69,33.188,46.69,28.906C46.69,28.906,46.69,-28.906,46.69,-28.906C46.69,-33.188,43.219,-36.659,38.938,-36.659Z" /></g><g id="i11" transform="matrix(1,0,0,1,425.74,354.267)"><path stroke-linejoin="round" stroke-linecap="round" stroke-width="4" stroke="#2c3447" d="M48.678,36.66C48.678,36.66,-48.677,36.66,-48.677,36.66C-52.959,36.66,-56.43,33.188,-56.43,28.907C-56.43,28.907,-56.43,-28.906,-56.43,-28.906C-56.43,-33.189,-52.959,-36.66,-48.677,-36.66C-48.677,-36.66,48.678,-36.66,48.678,-36.66C52.959,-36.66,56.43,-33.189,56.43,-28.906C56.43,-28.906,56.43,28.907,56.43,28.907C56.43,33.188,52.959,36.66,48.678,36.66Z" /></g><g id="i12" transform="matrix(1,0,0,1,425.74,354.267)"><path stroke-linejoin="round" stroke-linecap="round" stroke-width="4" stroke="#2c3447" fill="#ffffff" d="M19.408,-7.704C19.408,-7.704,7.705,-7.704,7.705,-7.704C7.705,-7.704,7.705,-19.408,7.705,-19.408C7.705,-19.408,-7.705,-19.408,-7.705,-19.408C-7.705,-19.408,-7.705,-7.704,-7.705,-7.704C-7.705,-7.704,-19.408,-7.704,-19.408,-7.704C-19.408,-7.704,-19.408,7.705,-19.408,7.705C-19.408,7.705,-7.705,7.705,-7.705,7.705C-7.705,7.705,-7.705,19.408,-7.705,19.408C-7.705,19.408,7.705,19.408,7.705,19.408C7.705,19.408,7.705,7.705,7.705,7.705C7.705,7.705,19.408,7.705,19.408,7.705C19.408,7.705,19.408,-7.704,19.408,-7.704Z" /></g><g id="i13" transform="matrix(1,0,0,1,425.74,311.778)"><path stroke-linejoin="round" stroke-linecap="round" stroke-width="4" stroke="#2c3447" d="M14.274,-5.83C14.274,-5.83,-14.273,-5.83,-14.273,-5.83C-16.548,-5.83,-18.394,-3.984,-18.394,-1.708C-18.394,-1.708,-18.394,5.829,-18.394,5.829C-18.394,5.829,18.394,5.829,18.394,5.829C18.394,5.829,18.394,-1.708,18.394,-1.708C18.394,-3.984,16.549,-5.83,14.274,-5.83Z" /></g><g id="i14" transform="matrix(1,0,0,1,426.037,305.948)"><path stroke-linejoin="round" stroke-linecap="round" stroke-width="4" stroke="#2c3447" fill="#d7dce9" d="M10.342,3.756C10.342,3.756,-10.343,3.756,-10.343,3.756C-11.199,3.756,-11.893,3.062,-11.893,2.205C-11.893,2.205,-11.893,-2.205,-11.893,-2.205C-11.893,-3.061,-11.199,-3.756,-10.343,-3.756C-10.343,-3.756,10.342,-3.756,10.342,-3.756C11.198,-3.756,11.893,-3.061,11.893,-2.205C11.893,-2.205,11.893,2.205,11.893,2.205C11.893,3.062,11.198,3.756,10.342,3.756Z" /></g></g></g></g><g id="i34"><g transform="translate(446.312,104.145)"><animateTransform repeatCount="indefinite" type="translate" attributeName="transform" dur="5s" begin="0s" calcMode="spline" values="446.312 104.145; 426.312 84.145; 446.312 104.145; 446.312 104.145" keyTimes="0; 0.453334; 0.993333; 1" keySplines="0.333 0 0.667 1; 0.333 0 0.667 1; 0 0 1 1" fill="freeze" /><g transform="scale(0.823,0.823) translate(-407.346,-215.437)"><g id="i8" transform="matrix(1,0,0,1,386.71,198.333)"><path fill="#2c3447" d="M-0.179,46.427C-17.142,46.33,-30.74,32.313,-30.74,15.35C-30.74,15.35,-30.74,-32.995,-30.74,-32.995C-30.74,-40.467,-24.683,-46.526,-17.21,-46.526C-17.21,-46.526,-17.21,-41.996,-17.21,-41.996C-22.182,-41.996,-26.211,-37.966,-26.211,-32.995C-26.211,-32.995,-26.211,15.4,-26.211,15.4C-26.211,29.864,-14.618,41.815,-0.154,41.898C14.37,41.981,26.212,30.192,26.212,15.688C26.212,15.688,26.212,-32.995,26.212,-32.995C26.212,-37.966,22.182,-41.996,17.211,-41.996C17.211,-41.996,17.211,-46.526,17.211,-46.526C24.683,-46.526,30.741,-40.467,30.741,-32.995C30.741,-32.995,30.741,15.688,30.741,15.688C30.741,32.699,16.853,46.525,-0.179,46.427Z" /></g><g id="i9" transform="matrix(1,0,0,1,418.81,261.489)"><path stroke-miterlimit="10" stroke-width="3" stroke="#2c3447" fill="#2c3447" d="M-20.38,18.992C-20.38,18.992,-21.108,18.992,-21.108,18.992C-28.18,18.992,-33.911,13.26,-33.911,6.187C-33.911,6.187,-33.911,-17.18,-33.911,-17.18C-33.911,-18.181,-33.101,-18.992,-32.1,-18.992C-31.1,-18.992,-30.289,-18.181,-30.289,-17.18C-30.289,-17.18,-30.289,5.824,-30.289,5.824C-30.289,11.096,-26.015,15.369,-20.743,15.369C-15.472,15.369,-11.199,11.096,-11.199,5.824C-11.199,5.824,-11.199,2.354,-11.199,2.354C-11.199,-0.446,-8.929,-2.717,-6.128,-2.717C-6.128,-2.717,6.811,-2.717,6.811,-2.717C9.612,-2.717,11.883,-0.446,11.883,2.354C11.883,2.354,11.883,7.761,11.883,7.761C11.883,8.761,12.694,9.572,13.694,9.572C13.694,9.572,32.099,9.572,32.099,9.572C33.1,9.572,33.911,10.384,33.911,11.384C33.911,12.385,33.1,13.195,32.099,13.195C32.099,13.195,13.331,13.195,13.331,13.195C10.53,13.195,8.26,10.925,8.26,8.124C8.26,8.124,8.26,2.718,8.26,2.718C8.26,1.718,7.449,0.906,6.448,0.906C6.448,0.906,-5.764,0.906,-5.764,0.906C-6.765,0.906,-7.576,1.718,-7.576,2.718C-7.576,2.718,-7.576,6.187,-7.576,6.187C-7.576,13.26,-13.308,18.992,-20.38,18.992Z" /></g><g id="i10" transform="matrix(1,0,0,1,451.562,272.872)"><path stroke-linejoin="round" stroke-linecap="round" stroke-width="4" stroke="#2c3447" fill="#d7dce9" d="M9.425,0C9.425,-5.205,5.205,-9.425,0,-9.425C-5.205,-9.425,-9.425,-5.205,-9.425,0C-9.425,5.205,-5.205,9.425,0,9.425C5.205,9.425,9.425,5.205,9.425,0Z" /></g><g id="i11" transform="matrix(1,0,0,1,451.562,272.872)"><path fill="#2c3447" d="M4.44,0C4.44,-2.452,2.452,-4.439,0,-4.439C-2.453,-4.439,-4.44,-2.452,-4.44,0C-4.44,2.452,-2.453,4.439,0,4.439C2.452,4.439,4.44,2.452,4.44,0Z" /></g><g id="i12" transform="matrix(1,0,0,1,386.71,217.6)"><path stroke-linejoin="round" stroke-linecap="round" stroke-width="4" stroke="#2c3447" fill="#d7dce9" d="M23.946,-29.427C23.946,-29.427,23.946,-3.578,23.946,-3.578C23.946,9.626,13.204,20.367,0,20.367C-13.204,20.367,-23.948,9.626,-23.948,-3.578C-23.948,-3.578,-23.948,-29.427,-23.948,-29.427C-23.948,-29.427,-33.005,-29.427,-33.005,-29.427C-33.005,-29.427,-33.005,-3.578,-33.005,-3.578C-33.005,14.62,-18.2,29.427,0,29.427C18.199,29.427,33.005,14.62,33.005,-3.578C33.005,-3.578,33.005,-29.427,33.005,-29.427C33.005,-29.427,23.946,-29.427,23.946,-29.427Z" /></g><g id="i13" transform="matrix(1,0,0,1,371.482,155.972)"><path stroke-miterlimit="10" stroke-width="4" stroke="#2c3447" fill="#d7dce9" d="M4.993,0C4.993,3.794,2.757,6.87,0,6.87C-2.758,6.87,-4.993,3.794,-4.993,0C-4.993,-3.794,-2.758,-6.87,0,-6.87C2.757,-6.87,4.993,-3.794,4.993,0Z" /></g><g id="i14" transform="matrix(1,0,0,1,401.939,155.447)"><path stroke-miterlimit="10" stroke-width="4" stroke="#2c3447" fill="#d7dce9" d="M4.993,-0.001C4.993,3.793,2.758,6.87,0,6.87C-2.758,6.87,-4.993,3.793,-4.993,-0.001C-4.993,-3.795,-2.758,-6.87,0,-6.87C2.758,-6.87,4.993,-3.795,4.993,-0.001Z" /></g></g></g></g><g id="i35"><g transform="translate(256,398.377)"><animateTransform repeatCount="indefinite" type="translate" attributeName="transform" dur="5s" begin="0s" calcMode="spline" values="256 398.377; 256 378.377; 256 398.377; 256 398.377" keyTimes="0; 0.36; 0.82; 1" keySplines="0.572 0 0.425 1; 0.333 0 0.477 1; 0 0 1 1" fill="freeze" /><g transform="scale(1.298,1.298)"><animateTransform repeatCount="indefinite" type="scale" attributeName="transform" dur="5s" begin="0s" calcMode="spline" values="1.298 1.298; 1.298 1.298; 1.198 1.198; 1.388 1.388; 1.298 1.298; 1.298 1.298" keyTimes="0; 0.193333; 0.273333; 0.36; 0.54; 1" keySplines="0 0 1 1; 0.333 0 0.667 1; 0.333 0 0.667 1; 0.333 0 0.667 1; 0 0 1 1" fill="freeze" /><g transform="translate(-239.473,-360.205)"><g id="i8" transform="matrix(1,0,0,1,239.473,250.538)"><path fill="#bcffef" d="M19.876,98.525C19.876,98.525,0.001,109.667,0.001,109.667C0.001,109.667,-19.877,98.525,-19.877,98.525C-65.285,73.072,-93.403,25.077,-93.403,-26.978C-93.403,-26.978,-93.403,-96.036,-93.403,-96.036C-93.403,-96.036,0.001,-109.667,0.001,-109.667C0.001,-109.667,93.402,-96.036,93.402,-96.036C93.402,-96.036,93.402,-26.978,93.402,-26.978C93.402,25.077,65.284,73.072,19.876,98.525Z" /></g><g id="i9" transform="matrix(1,0,0,1,195.092,250.538)"><path fill="#ffffff" d="M33.787,98.524C-11.621,73.072,-39.739,25.077,-39.739,-26.978C-39.739,-26.978,-39.739,-96.037,-39.739,-96.037C-39.739,-96.037,49.022,-108.99,49.022,-108.99C49.022,-108.99,44.381,-109.667,44.381,-109.667C44.381,-109.667,-49.022,-96.037,-49.022,-96.037C-49.022,-96.037,-49.022,-26.978,-49.022,-26.978C-49.022,25.077,-20.903,73.072,24.504,98.524C24.504,98.524,44.381,109.667,44.381,109.667C44.381,109.667,49.022,107.064,49.022,107.064C49.022,107.064,33.787,98.524,33.787,98.524Z" /></g><g id="i10" transform="matrix(1,0,0,1,239.473,249.676)"><path fill="#00b388" d="M-12.439,80.386C-50.079,59.288,-73.462,19.377,-73.462,-23.773C-73.462,-23.773,-73.462,-76.639,-73.462,-76.639C-73.462,-76.639,0,-87.36,0,-87.36C0,-87.36,73.462,-76.639,73.462,-76.639C73.462,-76.639,73.462,-23.773,73.462,-23.773C73.462,19.377,50.08,59.288,12.44,80.386C12.44,80.386,0,87.36,0,87.36C0,87.36,-12.439,80.386,-12.439,80.386Z" /></g><g id="i11" transform="matrix(1,0,0,1,259.25,252.758)"><path fill="#00b388" d="M53.685,-26.855C53.685,-26.855,53.685,-79.721,53.685,-79.721C53.685,-79.721,22.477,-84.276,22.477,-84.276C22.313,-59.259,16.914,34.665,-53.684,61.895C-47.191,67.743,-40.015,72.932,-32.216,77.303C-32.216,77.303,-19.776,84.276,-19.776,84.276C-19.776,84.276,-7.337,77.303,-7.337,77.303C30.302,56.205,53.685,16.294,53.685,-26.855Z" /></g><g id="i12" transform="matrix(1,0,0,1,239.473,250.538)"><path stroke-linejoin="round" stroke-linecap="round" stroke-width="4" stroke="#00b388" d="M19.876,98.525C19.876,98.525,0.001,109.667,0.001,109.667C0.001,109.667,-19.877,98.525,-19.877,98.525C-65.285,73.072,-93.403,25.077,-93.403,-26.978C-93.403,-26.978,-93.403,-96.036,-93.403,-96.036C-93.403,-96.036,0.001,-109.667,0.001,-109.667C0.001,-109.667,93.402,-96.036,93.402,-96.036C93.402,-96.036,93.402,-26.978,93.402,-26.978C93.402,25.077,65.284,73.072,19.876,98.525Z" /></g><g id="i13" transform="matrix(1,0,0,1,239.473,249.676)"><path stroke-linejoin="round" stroke-linecap="round" stroke-width="4" stroke="#00b388" d="M-12.439,80.386C-50.079,59.288,-73.462,19.377,-73.462,-23.773C-73.462,-23.773,-73.462,-76.639,-73.462,-76.639C-73.462,-76.639,0,-87.36,0,-87.36C0,-87.36,73.462,-76.639,73.462,-76.639C73.462,-76.639,73.462,-23.773,73.462,-23.773C73.462,19.377,50.08,59.288,12.44,80.386C12.44,80.386,0,87.36,0,87.36C0,87.36,-12.439,80.386,-12.439,80.386Z" /></g><g id="i14" transform="matrix(1,0,0,1,239.473,234.204)"><path stroke-linejoin="round" stroke-linecap="round" stroke-width="4" stroke="#00b388" fill="#ffffff" d="M43.598,-17.308C43.598,-17.308,17.308,-17.308,17.308,-17.308C17.308,-17.308,17.308,-43.597,17.308,-43.597C17.308,-43.597,-17.308,-43.597,-17.308,-43.597C-17.308,-43.597,-17.308,-17.308,-17.308,-17.308C-17.308,-17.308,-43.598,-17.308,-43.598,-17.308C-43.598,-17.308,-43.598,17.308,-43.598,17.308C-43.598,17.308,-17.308,17.308,-17.308,17.308C-17.308,17.308,-17.308,43.597,-17.308,43.597C-17.308,43.597,17.308,43.597,17.308,43.597C17.308,43.597,17.308,17.308,17.308,17.308C17.308,17.308,43.598,17.308,43.598,17.308C43.598,17.308,43.598,-17.308,43.598,-17.308Z" /></g></g></g></g></g></svg>