<svg fill="none" height="100%" width="100%" viewBox="0 0 500 500" xmlns:xlink="http://www.w3.org/1999/xlink" xmlns="http://www.w3.org/2000/svg"><defs><linearGradient id="i0" gradientUnits="userSpaceOnUse" spreadMethod="pad" x2="66.793" y2="422.62" x1="3.063" y1="358.89"><stop offset="0%" stop-color="#af1400" /><stop offset="19.2%" stop-color="#be4327" /><stop offset="55.7%" stop-color="#ef5b2e" /><stop offset="85.2%" stop-color="#d92600" /><stop offset="100%" stop-color="#89352a" /></linearGradient><linearGradient id="i1" gradientUnits="userSpaceOnUse" spreadMethod="pad" x2="-23.325" y2="453.212" x1="-85.922" y1="390.616"><stop offset="0%" stop-color="#ffffff" /><stop offset="36.5%" stop-color="#d4c4bf" /><stop offset="73.1%" stop-color="#a88f80" /><stop offset="96.1%" stop-color="#c59e96" /><stop offset="100%" stop-color="#e2b8ab" /></linearGradient><linearGradient id="i2" gradientUnits="userSpaceOnUse" spreadMethod="pad" x2="36.941" y2="385.822" x1="29.933" y1="392.831"><stop offset="0%" stop-color="#cda89d" /><stop offset="50%" stop-color="#e7d5d0" /><stop offset="100%" stop-color="#ffffff" /></linearGradient><linearGradient id="i3" gradientUnits="userSpaceOnUse" spreadMethod="pad" x2="-79.412" y2="367.11" x1="-58.727" y1="387.795"><stop offset="0%" stop-color="#080808" /><stop offset="50%" stop-color="#221e1b" /><stop offset="100%" stop-color="#3d342f" /></linearGradient><linearGradient id="i4" gradientUnits="userSpaceOnUse" spreadMethod="pad" x2="57.79" y2="425.393" x1="-6.508" y1="361.097"><stop offset="0%" stop-color="#ffffff" /><stop offset="36.5%" stop-color="#d4c4bf" /><stop offset="73.1%" stop-color="#a88f80" /><stop offset="96.1%" stop-color="#c59e96" /><stop offset="100%" stop-color="#e2b8ab" /></linearGradient><linearGradient id="i5" gradientUnits="userSpaceOnUse" spreadMethod="pad" x2="474.921" y2="-244.295" x1="412.871" y1="-182.246"><stop offset="0%" stop-color="#431a00" /><stop offset="19.2%" stop-color="#83756d" /><stop offset="55.7%" stop-color="#a89c99" /><stop offset="85.2%" stop-color="#83756d" /><stop offset="100%" stop-color="#5d493c" /></linearGradient><linearGradient id="i6" gradientUnits="userSpaceOnUse" spreadMethod="pad" x2="439.282" y2="-162.907" x1="446.105" y1="-156.083"><stop offset="0%" stop-color="#bababa" /><stop offset="50%" stop-color="#dedede" /><stop offset="100%" stop-color="#ffffff" /></linearGradient><linearGradient id="i7" gradientUnits="userSpaceOnUse" spreadMethod="pad" x2="550.705" y2="-226.559" x1="571.391" y1="-247.245"><stop offset="0%" stop-color="#080808" /><stop offset="50%" stop-color="#1a1a1a" /><stop offset="100%" stop-color="#292929" /></linearGradient><linearGradient id="i8" gradientUnits="userSpaceOnUse" spreadMethod="pad" x2="46.245" y2="104.238" x1="108.647" y1="44.084"><stop offset="0%" stop-color="#ffffff" /><stop offset="36.5%" stop-color="#c9c9c9" /><stop offset="73.1%" stop-color="#949494" /><stop offset="96.1%" stop-color="#b3b3b3" /><stop offset="100%" stop-color="#cfcfcf" /></linearGradient><linearGradient id="i9" gradientUnits="userSpaceOnUse" spreadMethod="pad" x2="-19.125" y2="18.038" x1="-18.5" y1="21.25"><stop offset="0%" stop-color="#ffd8cc" /><stop offset="50%" stop-color="#cf8c77" /><stop offset="100%" stop-color="#b83a1e" /></linearGradient><linearGradient id="i10" gradientUnits="userSpaceOnUse" spreadMethod="pad" x2="13" y2="6.289" x1="13" y1="7.5"><stop offset="0%" stop-color="#ffd8cc" /><stop offset="50%" stop-color="#cf8c77" /><stop offset="100%" stop-color="#b83a1e" /></linearGradient><linearGradient id="i11" gradientUnits="userSpaceOnUse" spreadMethod="pad" x2="24" y2="18.655" x1="24" y1="28"><stop offset="0%" stop-color="#ffd8cc" /><stop offset="50%" stop-color="#cf8c77" /><stop offset="100%" stop-color="#b83a1e" /></linearGradient><linearGradient id="i12" gradientUnits="userSpaceOnUse" spreadMethod="pad" x2="3" y2="4.66" x1="26.5" y1="6.5"><stop offset="0%" stop-color="#ffd8cc" /><stop offset="50%" stop-color="#cf8c77" /><stop offset="100%" stop-color="#b83a1e" /></linearGradient><linearGradient id="i13" gradientUnits="userSpaceOnUse" spreadMethod="pad" x2="22.75" y2="-19.848" x1="24.5" y1="-14"><stop offset="0%" stop-color="#ffd8cc" /><stop offset="50%" stop-color="#cf8c77" /><stop offset="100%" stop-color="#b83a1e" /></linearGradient><linearGradient id="i14" gradientUnits="userSpaceOnUse" spreadMethod="pad" x2="54" y2="-21.347" x1="51.75" y1="-17.5"><stop offset="0%" stop-color="#ffd8cc" /><stop offset="50%" stop-color="#cf8c77" /><stop offset="100%" stop-color="#b83a1e" /></linearGradient><linearGradient id="i15" gradientUnits="userSpaceOnUse" spreadMethod="pad" x2="65.25" y2="-14.343" x1="67" y1="-14"><stop offset="0%" stop-color="#ffd8cc" /><stop offset="50%" stop-color="#cf8c77" /><stop offset="100%" stop-color="#b83a1e" /></linearGradient><linearGradient id="i16" gradientUnits="userSpaceOnUse" spreadMethod="pad" x2="17" y2="-36.341" x1="19" y1="-31"><stop offset="0%" stop-color="#ffd8cc" /><stop offset="50%" stop-color="#cf8c77" /><stop offset="100%" stop-color="#b83a1e" /></linearGradient><linearGradient id="i17" gradientUnits="userSpaceOnUse" spreadMethod="pad" x2="26.75" y2="-7.345" x1="22" y1="1"><stop offset="0%" stop-color="#ffd8cc" /><stop offset="50%" stop-color="#cf8c77" /><stop offset="100%" stop-color="#b83a1e" /></linearGradient><linearGradient id="i18" gradientUnits="userSpaceOnUse" spreadMethod="pad" x2="27" y2="-9.356" x1="23.5" y1="-5"><stop offset="0%" stop-color="#ffd8cc" /><stop offset="50%" stop-color="#cf8c77" /><stop offset="100%" stop-color="#b83a1e" /></linearGradient><linearGradient id="i19" gradientUnits="userSpaceOnUse" spreadMethod="pad" x2="35.75" y2="-9.843" x1="37.75" y1="-5.5"><stop offset="0%" stop-color="#ffd8cc" /><stop offset="50%" stop-color="#cf8c77" /><stop offset="100%" stop-color="#b83a1e" /></linearGradient><linearGradient id="i20" gradientUnits="userSpaceOnUse" spreadMethod="pad" x2="-2" y2="-29.594" x1="-3" y1="-24"><stop offset="0%" stop-color="#ffd8cc" /><stop offset="50%" stop-color="#cf8c77" /><stop offset="100%" stop-color="#b83a1e" /></linearGradient><linearGradient id="i21" gradientUnits="userSpaceOnUse" spreadMethod="pad" x2="-1.5" y2="-31.594" x1="0" y1="-30"><stop offset="0%" stop-color="#ffd8cc" /><stop offset="50%" stop-color="#cf8c77" /><stop offset="100%" stop-color="#b83a1e" /></linearGradient><linearGradient id="i22" gradientUnits="userSpaceOnUse" spreadMethod="pad" x2="1" y2="-51.343" x1="4.25" y1="-48.75"><stop offset="0%" stop-color="#ffd8cc" /><stop offset="50%" stop-color="#cf8c77" /><stop offset="100%" stop-color="#b83a1e" /></linearGradient><linearGradient id="i23" gradientUnits="userSpaceOnUse" spreadMethod="pad" x2="-55.25" y2="-60.594" x1="-30" y1="-29.75"><stop offset="0%" stop-color="#ffd8cc" /><stop offset="50%" stop-color="#cf8c77" /><stop offset="100%" stop-color="#b83a1e" /></linearGradient><linearGradient id="i24" gradientUnits="userSpaceOnUse" spreadMethod="pad" x2="-153.75" y2="-87.591" x1="-12.25" y1="-86.25"><stop offset="0%" stop-color="#ffd8cc" /><stop offset="50%" stop-color="#cf8c77" /><stop offset="100%" stop-color="#b83a1e" /></linearGradient><linearGradient id="i25" gradientUnits="userSpaceOnUse" spreadMethod="pad" x2="11" y2="-155.342" x1="16" y1="-13"><stop offset="0%" stop-color="#ffd8cc" /><stop offset="50%" stop-color="#cf8c77" /><stop offset="100%" stop-color="#b83a1e" /></linearGradient><linearGradient id="i26" gradientUnits="userSpaceOnUse" spreadMethod="pad" x2="-23" y2="-155.342" x1="43.5" y1="-30"><stop offset="0%" stop-color="#ffd8cc" /><stop offset="50%" stop-color="#cf8c77" /><stop offset="100%" stop-color="#b83a1e" /></linearGradient><linearGradient id="i27" gradientUnits="userSpaceOnUse" spreadMethod="pad" x2="35.5" y2="-129.345" x1="17" y1="-73"><stop offset="0%" stop-color="#ffd8cc" /><stop offset="50%" stop-color="#cf8c77" /><stop offset="100%" stop-color="#b83a1e" /></linearGradient><linearGradient id="i28" gradientUnits="userSpaceOnUse" spreadMethod="pad" x2="72.5" y2="-108.846" x1="21.75" y1="-69"><stop offset="0%" stop-color="#ffd8cc" /><stop offset="50%" stop-color="#cf8c77" /><stop offset="100%" stop-color="#b83a1e" /></linearGradient><linearGradient id="i29" gradientUnits="userSpaceOnUse" spreadMethod="pad" x2="128.5" y2="-112.344" x1="75" y1="-71"><stop offset="0%" stop-color="#ffd8cc" /><stop offset="50%" stop-color="#cf8c77" /><stop offset="100%" stop-color="#b83a1e" /></linearGradient><linearGradient id="i30" gradientUnits="userSpaceOnUse" spreadMethod="pad" x2="110" y2="-141.343" x1="50.75" y1="-79.25"><stop offset="0%" stop-color="#ffd8cc" /><stop offset="50%" stop-color="#cf8c77" /><stop offset="100%" stop-color="#b83a1e" /></linearGradient><linearGradient id="i31" gradientUnits="userSpaceOnUse" spreadMethod="pad" x2="54" y2="-99.355" x1="74.5" y1="-130.5"><stop offset="0%" stop-color="#ffd8cc" /><stop offset="50%" stop-color="#cf8c77" /><stop offset="100%" stop-color="#b83a1e" /></linearGradient><linearGradient id="i32" gradientUnits="userSpaceOnUse" spreadMethod="pad" x2="12.5" y2="-165.842" x1="8" y1="-85"><stop offset="0%" stop-color="#ffd8cc" /><stop offset="50%" stop-color="#cf8c77" /><stop offset="100%" stop-color="#b83a1e" /></linearGradient><linearGradient id="i33" gradientUnits="userSpaceOnUse" spreadMethod="pad" x2="-66.5" y2="-164.848" x1="-28.5" y1="-81.5"><stop offset="0%" stop-color="#ffd8cc" /><stop offset="50%" stop-color="#cf8c77" /><stop offset="100%" stop-color="#b83a1e" /></linearGradient><linearGradient id="i34" gradientUnits="userSpaceOnUse" spreadMethod="pad" x2="-24.5" y2="-148.342" x1="-19" y1="-80.5"><stop offset="0%" stop-color="#ffd8cc" /><stop offset="50%" stop-color="#cf8c77" /><stop offset="100%" stop-color="#b83a1e" /></linearGradient><linearGradient id="i35" gradientUnits="userSpaceOnUse" spreadMethod="pad" x2="-41" y2="-196.844" x1="-75.5" y1="-106"><stop offset="0%" stop-color="#ffd8cc" /><stop offset="50%" stop-color="#cf8c77" /><stop offset="100%" stop-color="#b83a1e" /></linearGradient><linearGradient id="i36" gradientUnits="userSpaceOnUse" spreadMethod="pad" x2="-7" y2="-155.345" x1="9.5" y1="-143.125"><stop offset="0%" stop-color="#ffd8cc" /><stop offset="50%" stop-color="#cf8c77" /><stop offset="100%" stop-color="#b83a1e" /></linearGradient><linearGradient id="i37" gradientUnits="userSpaceOnUse" spreadMethod="pad" x2="-3" y2="-155.363" x1="15.25" y1="-138.75"><stop offset="0%" stop-color="#ffd8cc" /><stop offset="50%" stop-color="#cf8c77" /><stop offset="100%" stop-color="#b83a1e" /></linearGradient><linearGradient id="i38" gradientUnits="userSpaceOnUse" spreadMethod="pad" x2="2.125" y2="-154.158" x1="24.875" y1="-148.25"><stop offset="0%" stop-color="#ffd8cc" /><stop offset="50%" stop-color="#cf8c77" /><stop offset="100%" stop-color="#b83a1e" /></linearGradient><linearGradient id="i39" gradientUnits="userSpaceOnUse" spreadMethod="pad" x2="31.438" y2="-167.285" x1="-15.5" y1="-146.438"><stop offset="0%" stop-color="#ffd8cc" /><stop offset="50%" stop-color="#cf8c77" /><stop offset="100%" stop-color="#b83a1e" /></linearGradient><linearGradient id="i40" gradientUnits="userSpaceOnUse" spreadMethod="pad" x2="10" y2="-184.733" x1="26.125" y1="-142"><stop offset="0%" stop-color="#ffd8cc" /><stop offset="50%" stop-color="#cf8c77" /><stop offset="100%" stop-color="#b83a1e" /></linearGradient><linearGradient id="i41" gradientUnits="userSpaceOnUse" spreadMethod="pad" x2="31.75" y2="-164.347" x1="106.5" y1="-138.125"><stop offset="0%" stop-color="#ffd8cc" /><stop offset="50%" stop-color="#cf8c77" /><stop offset="100%" stop-color="#b83a1e" /></linearGradient></defs><g style="isolation: isolate"><g id="i42"><g transform="translate(200.397,326.047)"><animateTransform repeatCount="indefinite" type="translate" attributeName="transform" dur="4s" begin="0s" calcMode="spline" values="200.397 326.047; 176.397 326.047; 176.397 326.047" keyTimes="0; 0.125; 1" keySplines="0.333 0 0.667 1; 0 0 1 1" fill="freeze" /><g transform="rotate(43)"><animateTransform repeatCount="indefinite" type="rotate" attributeName="transform" dur="4s" begin="0s" calcMode="spline" values="43; 0; 0" keyTimes="0; 0.208333; 1" keySplines="0.333 0 0.667 1; 0 0 1 1" fill="freeze" /><g transform="scale(1,1) translate(75.603,-76.047)"><g id="i43"><g id="i44"><path fill="#ff3c00" d="M-40.698,41.79C-40.806,41.681,-40.913,41.577,-41.023,41.468C-41.133,41.359,-41.237,41.25,-41.345,41.142C-61.059,21.378,-69.772,8.171,-68.635,7.03C-68.635,7.03,-68.635,7.03,-68.635,7.03C-68.635,7.03,-133.393,71.788,-133.393,71.788C-150.528,88.923,-150.527,116.702,-133.393,133.837C-116.259,150.97,-88.479,150.972,-71.344,133.837C-71.344,133.837,-6.586,69.079,-6.586,69.079C-6.586,69.079,-6.586,69.079,-6.586,69.079C-7.727,70.216,-20.934,61.503,-40.698,41.79Z" /></g><g id="i43"><path fill="url(#i0)" d="M-68.792,5.507C-68.792,5.507,-68.792,5.509,-68.792,5.509C-69.96,6.68,-61.011,20.243,-40.764,40.542C-40.653,40.653,-40.545,40.764,-40.433,40.876C-40.319,40.989,-40.21,41.097,-40.099,41.208C-19.8,61.455,-6.236,70.405,-5.064,69.237C-5.064,69.237,-5.064,69.235,-5.064,69.235C-3.887,68.06,-12.937,54.354,-33.423,33.868C-53.91,13.382,-67.615,4.332,-68.792,5.507Z" /></g><g id="i45"><g id="i45"><path fill="url(#i1)" d="M-6.59,69.078C-6.59,69.078,-71.349,133.837,-71.349,133.837C-88.483,150.97,-116.26,150.97,-133.394,133.837C-138.782,128.448,-142.474,122.008,-144.474,115.175C-148.833,100.286,-145.14,83.538,-133.394,71.792C-133.394,71.792,-68.635,7.033,-68.635,7.033C-69.432,7.828,-65.378,14.573,-56.077,25.361C-52.123,29.947,-47.225,35.254,-41.345,41.144C-41.345,41.144,-40.696,41.794,-40.696,41.794C-30.816,51.651,-22.574,58.759,-16.659,63.258C-10.744,67.757,-7.158,69.645,-6.59,69.078Z" /></g><g id="i46"><path fill="url(#i2)" d="M-68.792,5.507C-68.792,5.507,-68.792,5.509,-68.792,5.509C-69.96,6.68,-61.011,20.243,-40.764,40.542C-40.653,40.653,-40.545,40.764,-40.433,40.876C-40.319,40.989,-40.21,41.097,-40.099,41.208C-19.8,61.455,-6.236,70.405,-5.064,69.237C-5.064,69.237,-5.064,69.235,-5.064,69.235C-3.887,68.06,-12.937,54.354,-33.423,33.868C-53.91,13.382,-67.615,4.332,-68.792,5.507Z" /></g></g><g id="i46"><path fill="url(#i3)" d="M-68.635,7.033C-69.432,7.828,-65.378,14.573,-56.077,25.361C-56.077,25.361,-55.631,26.858,-55.631,26.858C-55.631,26.858,-119.706,90.932,-119.706,90.932C-119.706,90.932,-119.027,97.659,-119.027,97.659C-119.027,97.659,-128.288,118.039,-144.474,115.175C-148.833,100.286,-145.14,83.538,-133.394,71.792C-133.394,71.792,-68.635,7.033,-68.635,7.033Z" /></g></g><g id="i45"><path fill="#ff3c00" d="M-5.066,69.237C-5.066,69.237,-11.376,75.547,-11.376,75.547C-12.547,76.719,-26.11,67.771,-46.407,47.521C-46.407,47.521,-47.074,46.855,-47.074,46.855C-67.324,26.557,-76.276,12.99,-75.104,11.817C-75.104,11.817,-68.795,5.509,-68.795,5.509C-69.966,6.681,-61.014,20.248,-40.764,40.546C-40.764,40.546,-40.097,41.214,-40.097,41.214C-29.949,51.337,-21.483,58.638,-15.408,63.259C-9.333,67.88,-5.649,69.819,-5.066,69.237Z" /></g><g id="i46"><path fill="url(#i4)" d="M-5.067,69.239C-5.067,69.239,-11.373,75.546,-11.373,75.546C-12.549,76.722,-26.11,67.771,-46.403,47.524C-46.403,47.524,-47.071,46.856,-47.071,46.856C-53.242,40.672,-58.36,35.11,-62.461,30.33C-71.839,19.443,-75.922,12.633,-75.103,11.815C-75.103,11.815,-68.797,5.509,-68.797,5.509C-69.609,6.321,-65.527,13.131,-56.156,24.024C-52.054,28.803,-46.936,34.366,-40.764,40.55C-40.764,40.55,-40.097,41.216,-40.097,41.216C-29.952,51.338,-21.483,58.639,-15.41,63.261C-9.332,67.876,-5.645,69.819,-5.067,69.239Z" /></g></g></g></g></g><g id="i47"><g transform="translate(308.025,324.526)"><animateTransform repeatCount="indefinite" type="translate" attributeName="transform" dur="4s" begin="0s" calcMode="spline" values="308.025 324.526; 326.025 324.526; 326.025 324.526" keyTimes="0; 0.125; 1" keySplines="0.333 0 0.667 1; 0 0 1 1" fill="freeze" /><g transform="rotate(-44)"><animateTransform repeatCount="indefinite" type="rotate" attributeName="transform" dur="4s" begin="0s" calcMode="spline" values="-44; 0; 0" keyTimes="0; 0.208333; 1" keySplines="0.333 0 0.667 1; 0 0 1 1" fill="freeze" /><g transform="scale(1,1) translate(-74.025,-68.526)"><g id="i44"><path fill="#ffefeb" d="M38.015,33.165C38.124,33.057,38.231,32.952,38.34,32.842C38.449,32.732,38.556,32.625,38.663,32.517C58.377,12.753,67.09,-0.454,65.952,-1.595C65.952,-1.595,65.952,-1.595,65.952,-1.595C65.952,-1.595,131.394,63.847,131.394,63.847C148.528,80.98,148.528,108.76,131.394,125.895C114.26,143.028,86.479,143.028,69.344,125.895C69.344,125.895,3.903,60.454,3.903,60.454C3.903,60.454,3.903,60.454,3.903,60.454C5.046,61.591,18.252,52.878,38.015,33.165Z" /></g><g id="i43"><path fill="url(#i5)" d="M65.952,-1.595C65.952,-1.595,65.952,-1.595,65.952,-1.595C67.09,-0.454,58.377,12.753,38.663,32.517C38.556,32.625,38.449,32.732,38.34,32.841C38.231,32.95,38.124,33.057,38.015,33.165C18.252,52.878,5.046,61.591,3.903,60.454C3.903,60.454,3.903,60.454,3.903,60.454C2.758,59.309,11.57,45.965,31.517,26.018C51.463,6.072,64.807,-2.74,65.952,-1.595Z" /></g><g id="i45"><path fill="url(#i6)" d="M65.952,-1.595C65.952,-1.595,65.952,-1.595,65.952,-1.595C67.09,-0.454,58.377,12.753,38.663,32.517C38.556,32.625,38.449,32.732,38.34,32.841C38.231,32.95,38.124,33.057,38.015,33.165C18.252,52.878,5.046,61.591,3.903,60.454C3.903,60.454,3.903,60.454,3.903,60.454C2.758,59.309,11.57,45.965,31.517,26.018C51.463,6.072,64.807,-2.74,65.952,-1.595Z" /></g><g id="i46"><path fill="url(#i7)" d="M65.953,-1.592C66.748,-0.797,62.697,5.948,53.393,16.736C53.393,16.736,52.949,18.233,52.949,18.233C52.949,18.233,117.706,82.991,117.706,82.991C117.706,82.991,117.027,89.718,117.027,89.718C117.027,89.718,126.288,110.096,142.475,107.232C146.834,92.344,143.141,75.596,131.395,63.849C131.395,63.849,65.953,-1.592,65.953,-1.592Z" /></g></g></g></g></g><g id="i47"><g transform="translate(308.025,324.526)"><animateTransform repeatCount="indefinite" type="translate" attributeName="transform" dur="4s" begin="0s" calcMode="spline" values="308.025 324.526; 326.025 324.526; 326.025 324.526" keyTimes="0; 0.125; 1" keySplines="0.333 0 0.667 1; 0 0 1 1" fill="freeze" /><g transform="rotate(-44)"><animateTransform repeatCount="indefinite" type="rotate" attributeName="transform" dur="4s" begin="0s" calcMode="spline" values="-44; 0; 0" keyTimes="0; 0.208333; 1" keySplines="0.333 0 0.667 1; 0 0 1 1" fill="freeze" /><g transform="scale(1,1) translate(-74.025,-68.526)"><g transform="matrix(1,0,0,1,0,0)" style="mix-blend-mode: multiply" id="i48"><g id="i46"><path fill="url(#i8)" d="M13.977,54.632C19.89,50.134,28.133,43.026,38.014,33.169C38.014,33.169,38.663,32.52,38.663,32.52C44.542,26.628,49.44,21.321,53.393,16.736C62.697,5.948,66.748,-0.797,65.953,-1.592C65.953,-1.592,131.395,63.849,131.395,63.849C143.141,75.596,146.834,92.344,142.475,107.232C140.474,114.065,136.784,120.507,131.395,125.894C114.261,143.029,86.484,143.029,69.35,125.894C69.35,125.894,3.908,60.453,3.908,60.453C4.475,61.021,8.062,59.131,13.977,54.632Z" /></g></g></g></g></g></g><g id="i49"><g transform="translate(250.531,329.498)"><animateTransform repeatCount="indefinite" type="translate" attributeName="transform" dur="4s" begin="0s" calcMode="spline" values="250.531 329.498; 250.531 329.498; 241.531 247.498; 241.531 247.498" keyTimes="0; 0.125; 0.208333; 1" keySplines="0 0 1 1; 0.333 0 0.667 1; 0 0 1 1" fill="freeze" /><g transform="rotate(-1.143)"><g transform="scale(0,0)"><animateTransform repeatCount="indefinite" type="scale" attributeName="transform" dur="4s" begin="0s" calcMode="spline" values="0 0; 0 0; 0.9 0.9; 1 1; 0.9 0.9; 0.78 0.78" keyTimes="0; 0.125; 0.208333; 0.458333; 0.75; 1" keySplines="0 0 1 1; 0.333 0 0.667 1; 0.333 0 0.667 1; 0.333 0 0.667 1; 0.333 0 0.667 1" fill="freeze" /><g transform="translate(11.469,2.502)"><g id="i44"><path fill="url(#i9)" d="M-38.867,7.724C-39.633,7.893,-40.172,8.38,-40.075,8.814C-39.98,9.244,-39.285,9.463,-38.519,9.294C-38.519,9.294,-30.591,7.544,-30.591,7.544C-31.125,7.118,-31.646,6.682,-32.158,6.243C-32.158,6.243,-38.867,7.724,-38.867,7.724Z" /></g><g id="i43"><path fill="url(#i10)" d="M16.102,-4.406C16.102,-4.406,10.309,-3.128,10.309,-3.128C10.034,-2.516,9.742,-1.899,9.447,-1.291C9.447,-1.291,16.447,-2.836,16.447,-2.836C17.209,-3.004,17.744,-3.494,17.65,-3.924C17.552,-4.359,16.864,-4.574,16.102,-4.406Z" /></g><g id="i45"><path fill="url(#i11)" d="M-22.191,0.401C-22.191,0.401,-16.163,5.953,-16.163,5.953C-16.163,5.953,-13.321,-8.674,-13.321,-8.674C-13.321,-8.674,-4.973,1.239,-4.973,1.239C-4.973,1.239,-1.98,-2.5,-1.98,-2.5C-1.98,-2.5,3.223,-1.564,3.223,-1.564C3.223,-1.564,10.309,-3.128,10.309,-3.128C13.579,-10.398,14.748,-17.582,10.143,-21.989C-3.952,-35.449,-14.421,-14.307,-14.421,-14.307C-14.421,-14.307,-32.818,-29.08,-39.935,-10.939C-42.261,-5.003,-38.181,1.024,-32.158,6.243C-32.158,6.243,-25.822,4.845,-25.822,4.845C-25.822,4.845,-22.191,0.401,-22.191,0.401Z" /></g><g id="i46"><path fill="url(#i12)" d="M-0.835,-0.686C-0.835,-0.686,-5.308,4.91,-5.308,4.91C-5.308,4.91,-11.729,-2.721,-11.729,-2.721C-11.729,-2.721,-14.385,10.941,-14.385,10.941C-14.385,10.941,-22.302,3.648,-22.302,3.648C-22.302,3.648,-23.806,6.047,-23.806,6.047C-23.806,6.047,-30.591,7.544,-30.591,7.544C-20.544,15.618,-6.528,21.468,-6.528,21.468C-6.528,21.468,3.72,10.264,9.447,-1.291C9.447,-1.291,2.379,0.27,2.379,0.27C2.379,0.27,-0.835,-0.686,-0.835,-0.686Z" /></g></g></g></g></g></g><g id="i50"><g transform="translate(249.432,323.283)"><animateTransform repeatCount="indefinite" type="translate" attributeName="transform" dur="4s" begin="0s" calcMode="spline" values="249.432 323.283; 249.432 323.283; 289.432 213.283; 289.432 213.283" keyTimes="0; 0.166667; 0.25; 1" keySplines="0 0 1 1; 0 0 1 1; 0 0 1 1" fill="freeze" /><g transform="rotate(360)"><g transform="scale(0,0)"><animateTransform repeatCount="indefinite" type="scale" attributeName="transform" dur="4s" begin="0s" calcMode="spline" values="0 0; 0 0; 1 1; 0.9 0.9; 1 1; 0.9 0.9; 1 1" keyTimes="0; 0.166667; 0.25; 0.291667; 0.541667; 0.791667; 1" keySplines="0 0 1 1; 0 0 1 1; 0 0 1 1; 0 0 1 1; 0 0 1 1; 0 0 1 1" fill="freeze" /><g transform="translate(-39.432,36.717)"><g id="i51"><path fill="url(#i13)" d="M43.709,-35.438C43.012,-33.077,40.531,-31.729,38.166,-32.428C35.805,-33.127,34.457,-35.606,35.156,-37.967C35.855,-40.332,38.336,-41.679,40.695,-40.98C43.06,-40.281,44.41,-37.803,43.709,-35.438Z" /></g><g id="i52"><path fill="url(#i14)" d="M58.172,-37.15C57.801,-35.898,56.481,-35.184,55.229,-35.553C53.967,-35.926,53.25,-37.244,53.621,-38.496C53.992,-39.752,55.314,-40.476,56.572,-40.105C57.828,-39.732,58.543,-38.406,58.172,-37.15Z" /></g><g id="i53"><path fill="url(#i15)" d="M59.379,-36.418C59.233,-36.064,59.04,-35.744,58.81,-35.463C61.769,-33.277,63.207,-31.238,62.781,-29.799C61.828,-26.572,51.426,-25.896,37.457,-30.029C23.492,-34.158,15.131,-40.382,16.084,-43.607C17.037,-46.832,27.439,-47.506,41.404,-43.375C45.619,-42.129,49.318,-40.695,52.41,-39.209C52.547,-39.559,52.736,-39.881,52.961,-40.162C49.559,-41.807,45.67,-43.301,41.727,-44.467C29.721,-48.018,16.435,-48.788,14.996,-43.93C13.56,-39.069,25.129,-32.49,37.135,-28.939C49.149,-25.384,62.431,-24.616,63.869,-29.475C64.494,-31.594,62.649,-34.035,59.379,-36.418Z" /></g><g id="i44"><path fill="url(#i16)" d="M29.688,-52.724C30.963,-53.028,32.244,-52.244,32.549,-50.971C32.856,-49.691,32.072,-48.416,30.799,-48.107C29.524,-47.802,28.243,-48.583,27.938,-49.858C27.629,-51.131,28.415,-52.416,29.688,-52.724Z" /></g><g id="i43"><path fill="url(#i17)" d="M29.727,-54.126C30.104,-54.184,30.477,-54.178,30.834,-54.119C31.248,-57.771,32.295,-60.035,33.754,-60.389C37.024,-61.176,42.813,-52.508,46.217,-38.348C49.623,-24.184,48.412,-13.83,45.141,-13.041C41.873,-12.258,36.086,-20.928,32.68,-35.084C31.653,-39.363,31.047,-43.281,30.789,-46.703C30.418,-46.648,30.046,-46.65,29.689,-46.705C29.962,-42.932,30.619,-38.82,31.58,-34.826C34.508,-22.644,40.482,-10.757,45.41,-11.945C50.334,-13.127,50.248,-26.431,47.32,-38.609C44.388,-50.787,38.416,-62.677,33.488,-61.489C31.342,-60.976,30.147,-58.152,29.727,-54.126Z" /></g><g id="i45"><path fill="url(#i18)" d="M30.449,-20.268C29.545,-21.217,29.584,-22.721,30.533,-23.621C31.484,-24.525,32.987,-24.486,33.889,-23.539C34.791,-22.588,34.752,-21.084,33.801,-20.184C32.856,-19.282,31.351,-19.321,30.449,-20.268Z" /></g><g id="i46"><path fill="url(#i19)" d="M29.209,-19.596C28.975,-19.895,28.793,-20.22,28.662,-20.566C25.291,-19.093,22.806,-18.871,21.775,-19.951C19.459,-22.394,24.074,-31.738,34.633,-41.771C45.195,-51.804,54.766,-55.929,57.082,-53.49C59.396,-51.054,54.781,-41.705,44.219,-31.672C41.037,-28.651,37.943,-26.166,35.107,-24.23C35.343,-23.937,35.525,-23.615,35.658,-23.277C38.789,-25.402,42.023,-28.026,45.002,-30.854C54.086,-39.481,61.39,-50.597,57.902,-54.27C54.414,-57.946,42.936,-51.217,33.854,-42.592C24.772,-33.965,17.463,-22.848,20.951,-19.178C22.471,-17.574,25.51,-17.951,29.209,-19.596Z" /></g></g></g></g></g></g><g id="i54"><g transform="translate(250.738,311.439)"><animateTransform repeatCount="indefinite" type="translate" attributeName="transform" dur="4s" begin="0s" calcMode="spline" values="250.738 311.439; 250.738 311.439; 233.738 199.439; 233.738 199.439" keyTimes="0; 0.208333; 0.291666; 1" keySplines="0 0 1 1; 0 0 1 1; 0 0 1 1" fill="freeze" /><g transform="scale(0,0)"><animateTransform repeatCount="indefinite" type="scale" attributeName="transform" dur="4s" begin="0s" calcMode="spline" values="0 0; 0 0; 1 1; 0.9 0.9; 1 1; 0.9 0.9; 1 1" keyTimes="0; 0.208333; 0.291666; 0.3; 0.541667; 0.791667; 1" keySplines="0 0 1 1; 0.333 0 0.667 1; 0.333 0 0.667 1; 0.333 0 0.667 1; 0.333 0 0.667 1; 0.333 0 0.667 1" fill="freeze" /><g transform="translate(16.262,50.561)"><g id="i43"><path fill="url(#i20)" d="M-15.812,-49.981C-6.149,-53.37,-0.414,-58.497,0.828,-61.825C0.828,-61.825,-0.606,-62.358,-0.606,-62.358C-1.541,-59.85,-6.497,-54.868,-16.319,-51.419C-25.766,-48.103,-32.039,-42.808,-33.351,-39.294C-33.351,-39.294,-31.918,-38.763,-31.918,-38.763C-30.996,-41.234,-25.806,-46.467,-15.812,-49.981Z" /></g><g id="i45"><path fill="url(#i21)" d="M-14.857,-49.47C-15.171,-49.349,-15.494,-49.233,-15.815,-49.118C-15.984,-49.059,-16.143,-48.999,-16.309,-48.94C-15.803,-48.006,-15.349,-47.101,-14.941,-46.22C-14.941,-46.22,-18.585,-47.579,-18.585,-47.579C-18.585,-47.579,-20.565,-46.64,-20.565,-46.64C-20.565,-46.64,-14.075,-44.218,-14.075,-44.218C-13.79,-43.521,-13.539,-42.839,-13.314,-42.181C-13.314,-42.181,-22.365,-45.554,-22.365,-45.554C-22.365,-45.554,-24.044,-44.507,-24.044,-44.507C-24.044,-44.507,-12.725,-40.284,-12.725,-40.284C-12.539,-39.612,-12.382,-38.97,-12.257,-38.355C-12.257,-38.355,-25.483,-43.29,-25.483,-43.29C-25.483,-43.29,-26.988,-42.177,-26.988,-42.177C-26.988,-42.177,-11.948,-36.565,-11.948,-36.565C-11.863,-35.913,-11.81,-35.306,-11.787,-34.751C-11.787,-34.751,-28.292,-40.909,-28.292,-40.909C-28.292,-40.909,-29.302,-39.608,-29.302,-39.608C-29.302,-39.608,-11.819,-33.085,-11.819,-33.085C-11.878,-32.396,-11.999,-31.824,-12.159,-31.39C-12.159,-31.39,-10.727,-30.856,-10.727,-30.856C-9.546,-34.028,-10.381,-41.109,-14.857,-49.47Z" /></g><g id="i46"><path fill="url(#i22)" d="M-17.752,-51.575C-17.461,-51.684,-17.164,-51.79,-16.867,-51.895C-16.676,-51.961,-16.49,-52.031,-16.304,-52.101C-16.845,-53.119,-17.324,-54.11,-17.752,-55.073C-17.752,-55.073,-14.041,-53.69,-14.041,-53.69C-14.041,-53.69,-12.062,-54.626,-12.062,-54.626C-12.062,-54.626,-18.575,-57.056,-18.575,-57.056C-18.843,-57.753,-19.08,-58.425,-19.294,-59.079C-19.294,-59.079,-10.264,-55.712,-10.264,-55.712C-10.264,-55.712,-8.584,-56.757,-8.584,-56.757C-8.584,-56.757,-19.851,-60.964,-19.851,-60.964C-20.026,-61.63,-20.172,-62.271,-20.293,-62.884C-20.293,-62.884,-7.143,-57.977,-7.143,-57.977C-7.143,-57.977,-5.64,-59.091,-5.64,-59.091C-5.64,-59.091,-20.58,-64.667,-20.58,-64.667C-20.661,-65.315,-20.71,-65.921,-20.728,-66.474C-20.728,-66.474,-4.335,-60.36,-4.335,-60.36C-4.335,-60.36,-3.325,-61.659,-3.325,-61.659C-3.325,-61.659,-20.688,-68.134,-20.688,-68.134C-20.626,-68.788,-20.515,-69.327,-20.363,-69.731C-20.363,-69.731,-21.793,-70.265,-21.793,-70.265C-23.025,-66.97,-21.977,-59.639,-17.752,-51.575Z" /></g></g></g></g></g><g id="i55"><g transform="translate(251.277,314.001)"><animateTransform repeatCount="indefinite" type="translate" attributeName="transform" dur="4s" begin="0s" calcMode="spline" values="251.277 314.001; 251.277 314.001; 195.277 193.001; 195.277 193.001" keyTimes="0; 0.25; 0.333333; 1" keySplines="0 0 1 1; 0.333 0 0.667 1; 0 0 1 1" fill="freeze" /><g transform="scale(0,0)"><animateTransform repeatCount="indefinite" type="scale" attributeName="transform" dur="4s" begin="0s" calcMode="spline" values="0 0; 0 0; 1 1; 0.9 0.9; 1 1; 0.9 0.9; 1 1" keyTimes="0; 0.25; 0.333333; 0.341666; 0.566666; 0.8; 1" keySplines="0 0 1 1; 0.333 0 0.667 1; 0.333 0 0.667 1; 0.333 0 0.667 1; 0.333 0 0.667 1; 0.333 0 0.667 1" fill="freeze" /><g transform="translate(54.723,56.999)"><g id="i46"><path fill="url(#i23)" d="M-45.54,-63.52C-45.54,-63.52,-47.409,-62.355,-47.409,-62.355C-47.409,-62.355,-51.285,-59.936,-51.285,-59.936C-51.285,-59.936,-50.39,-58.503,-50.39,-58.503C-50.39,-58.503,-47.507,-60.3,-47.507,-60.3C-46.951,-60.181,-46.303,-59.776,-46.009,-58.649C-45.361,-54.721,-47.068,-50.6,-50.65,-48.368C-55.399,-45.405,-61.674,-46.86,-64.637,-51.608C-67.599,-56.358,-66.146,-62.636,-61.396,-65.595C-61.396,-65.595,-61.396,-65.595,-61.396,-65.595C-61.396,-65.595,-58.295,-63.913,-58.295,-63.913C-58.295,-63.913,-56.792,-66.683,-56.792,-66.683C-56.792,-66.683,-52.455,-64.329,-52.455,-64.329C-52.455,-64.329,-50.674,-67.612,-50.674,-67.612C-50.674,-67.612,-55.01,-69.968,-55.01,-69.968C-55.01,-69.968,-57.277,-74.78,-57.277,-74.78C-57.277,-74.78,-61.057,-76.833,-61.057,-76.833C-61.057,-76.833,-62.561,-74.064,-62.561,-74.064C-62.561,-74.064,-66.899,-76.417,-66.899,-76.417C-66.899,-76.417,-68.678,-73.134,-68.678,-73.134C-68.678,-73.134,-64.341,-70.782,-64.341,-70.782C-64.341,-70.782,-65.844,-68.011,-65.844,-68.011C-65.844,-68.011,-63.559,-66.769,-63.559,-66.769C-68.534,-62.947,-69.893,-55.876,-66.505,-50.442C-63.181,-45.116,-56.438,-43.198,-50.874,-45.755C-50.874,-45.755,-48.214,-41.491,-48.214,-41.491C-48.214,-41.491,-50.701,-39.939,-50.701,-39.939C-50.701,-39.939,-50.244,-37.165,-50.244,-37.165C-50.244,-37.165,-40.768,-43.077,-40.768,-43.077C-40.768,-43.077,-43.06,-44.708,-43.06,-44.708C-43.06,-44.708,-45.545,-43.157,-45.545,-43.157C-45.545,-43.157,-48.205,-47.419,-48.205,-47.419C-44.568,-50.388,-42.986,-55.142,-43.95,-59.599C-44.084,-60.439,-44.213,-62.042,-43.456,-62.827C-43.456,-62.827,-41.358,-64.136,-41.358,-64.136C-41.358,-64.136,-42.252,-65.571,-42.252,-65.571C-42.252,-65.571,-45.54,-63.52,-45.54,-63.52Z" /></g></g></g></g></g><g id="i56"><g transform="translate(252.407,313.172)"><animateTransform repeatCount="indefinite" type="translate" attributeName="transform" dur="4s" begin="0s" calcMode="spline" values="252.407 313.172; 252.407 313.172; 162.407 157.172; 162.407 157.172" keyTimes="0; 0.291667; 0.375; 1" keySplines="0 0 1 1; 0 0 1 1; 0 0 1 1" fill="freeze" /><g transform="scale(0,0)"><animateTransform repeatCount="indefinite" type="scale" attributeName="transform" dur="4s" begin="0s" calcMode="spline" values="0 0; 0 0; 0.9 0.9; 1 1; 0.9 0.9; 1 1" keyTimes="0; 0.291667; 0.375; 0.583334; 0.791666; 1" keySplines="0 0 1 1; 0.333 0 0.667 1; 0.333 0 0.667 1; 0.333 0 0.667 1; 0.333 0 0.667 1" fill="freeze" /><g transform="translate(87.593,92.828)"><g id="i46"><path fill="url(#i24)" d="M-72.423,-82.102C-70.027,-83.584,-70.434,-86.868,-70.872,-88.645C-70.925,-89.18,-71.119,-91.13,-71.317,-91.821C-71.448,-92.28,-71.965,-93.426,-72.103,-93.561C-72.241,-93.698,-72.374,-93.732,-72.919,-93.546C-73.462,-93.364,-73.589,-93.142,-73.646,-92.933C-73.705,-92.722,-73.306,-91.524,-73.133,-91.075C-72.887,-90.442,-71.99,-88.8,-71.762,-88.384C-71.385,-86.82,-71.039,-84.042,-72.907,-82.884C-75.014,-81.583,-82.473,-83.569,-86.229,-84.774C-86.229,-84.774,-86.094,-85.212,-86.094,-85.212C-86.094,-85.212,-89.843,-86.376,-89.843,-86.376C-89.843,-86.376,-88.99,-89.993,-88.99,-89.993C-88.99,-89.993,-89.451,-90.105,-89.451,-90.105C-88.843,-94.027,-87.295,-101.481,-85.204,-102.774C-83.336,-103.93,-81.005,-102.378,-79.773,-101.343C-79.503,-100.952,-78.437,-99.415,-77.978,-98.913C-77.654,-98.558,-76.759,-97.665,-76.547,-97.624C-76.332,-97.581,-76.079,-97.595,-75.672,-97.999C-75.264,-98.403,-75.233,-98.54,-75.293,-98.722C-75.351,-98.908,-76.148,-99.88,-76.5,-100.204C-77.029,-100.69,-78.687,-101.735,-79.143,-102.02C-80.538,-103.208,-83.29,-105.038,-85.688,-103.558C-88.317,-101.931,-89.84,-93.632,-90.353,-90.314C-90.353,-90.314,-90.931,-90.45,-90.931,-90.45C-90.931,-90.45,-91.901,-86.335,-91.901,-86.335C-91.901,-86.335,-94.595,-84.669,-94.595,-84.669C-94.595,-84.669,-94.264,-84.132,-94.264,-84.132C-95.323,-83.421,-97.19,-82.391,-98.842,-82.651C-99.765,-82.796,-100.493,-83.315,-101.064,-84.243C-103.038,-87.434,-104.49,-91.534,-103.282,-93.497C-102.655,-94.518,-101.317,-94.95,-99.301,-94.776C-97.175,-94.596,-95.871,-94.026,-95.523,-93.13C-95.162,-92.191,-95.866,-90.921,-96.443,-90.142C-97.129,-90.531,-98,-90.542,-98.716,-90.099C-99.76,-89.454,-100.084,-88.079,-99.439,-87.034C-98.794,-85.993,-97.42,-85.669,-96.377,-86.314C-95.332,-86.962,-95.008,-88.333,-95.653,-89.376C-95.684,-89.429,-95.721,-89.479,-95.756,-89.528C-95.126,-90.356,-94.109,-92.013,-94.666,-93.46C-95.151,-94.728,-96.685,-95.479,-99.223,-95.694C-101.614,-95.897,-103.241,-95.322,-104.066,-93.98C-105.572,-91.527,-103.908,-87.093,-101.847,-83.759C-101.134,-82.607,-100.17,-81.927,-98.984,-81.741C-97.032,-81.436,-94.955,-82.558,-93.778,-83.347C-93.778,-83.347,-93.546,-82.972,-93.546,-82.972C-93.546,-82.972,-90.889,-84.612,-90.889,-84.612C-90.889,-84.612,-86.685,-83.31,-86.685,-83.31C-86.685,-83.31,-86.503,-83.898,-86.503,-83.898C-83.419,-82.9,-75.094,-80.452,-72.423,-82.102ZM-96.86,-87.097C-97.472,-86.72,-98.278,-86.908,-98.657,-87.523C-99.035,-88.132,-98.843,-88.938,-98.232,-89.317C-97.621,-89.696,-96.816,-89.505,-96.437,-88.894C-96.059,-88.283,-96.248,-87.476,-96.86,-87.097Z" /></g></g></g></g></g><g id="i57"><g transform="translate(251.443,313.167)"><animateTransform repeatCount="indefinite" type="translate" attributeName="transform" dur="4s" begin="0s" calcMode="spline" values="251.443 313.167; 251.443 313.167; 254.443 173.167; 254.443 173.167" keyTimes="0; 0.333333; 0.416667; 1" keySplines="0 0 1 1; 0.333 0 0.667 1; 0 0 1 1" fill="freeze" /><g transform="scale(0,0)"><animateTransform repeatCount="indefinite" type="scale" attributeName="transform" dur="4s" begin="0s" calcMode="spline" values="0 0; 0 0; 0.9 0.9; 1 1; 0.9 0.9; 1 1" keyTimes="0; 0.333333; 0.416667; 0.625; 0.816667; 1" keySplines="0 0 1 1; 0.333 0 0.667 1; 0.333 0 0.667 1; 0.333 0 0.667 1; 0.333 0 0.667 1" fill="freeze" /><g transform="translate(-4.443,76.833)"><g id="i46"><path fill="url(#i25)" d="M-5.977,-89.836C-5.977,-89.836,-12.125,-80.563,-12.125,-80.563C-13.202,-78.94,-12.752,-76.729,-11.128,-75.653C-11.128,-75.653,-4.708,-71.395,-4.708,-71.395C-3.085,-70.319,-1.744,-69.453,-1.732,-69.469C-1.72,-69.489,-0.432,-69.848,1.131,-70.27C2.692,-70.692,4.885,-70.432,6.004,-69.69C7.123,-68.946,7.951,-68.209,7.846,-68.053C7.741,-67.893,8.109,-67.461,8.664,-67.094C9.203,-66.735,10.47,-67.686,11.525,-69.219C11.525,-69.219,12.365,-68.667,12.365,-68.667C12.365,-68.667,13.168,-69.876,13.168,-69.876C13.168,-69.876,14.111,-69.249,14.111,-69.249C14.381,-69.071,14.53,-68.899,14.553,-68.739C14.606,-68.399,14.17,-67.878,13.752,-67.372C13.123,-66.616,12.411,-65.756,12.561,-64.727C12.666,-64.016,13.162,-63.375,14.082,-62.764C14.836,-62.264,15.539,-62.126,16.168,-62.356C16.643,-62.53,17.029,-62.893,17.367,-63.399C18.049,-64.43,18.521,-66.061,19.07,-67.965C19.703,-70.156,20.418,-72.642,21.598,-74.419C21.598,-74.419,20.77,-74.967,20.77,-74.967C19.51,-73.063,18.769,-70.501,18.115,-68.241C17.431,-65.878,16.787,-63.64,15.824,-63.288C15.506,-63.171,15.115,-63.27,14.629,-63.59C13.971,-64.029,13.602,-64.462,13.545,-64.87C13.455,-65.464,13.993,-66.114,14.514,-66.739C15.073,-67.413,15.65,-68.106,15.533,-68.883C15.469,-69.336,15.174,-69.737,14.66,-70.077C14.66,-70.077,13.717,-70.704,13.717,-70.704C13.717,-70.704,14.516,-71.913,14.516,-71.913C14.516,-71.913,13.68,-72.469,13.68,-72.469C14.682,-74.039,15.062,-75.577,14.525,-75.932C13.97,-76.301,13.429,-76.475,13.322,-76.315C13.217,-76.155,12.217,-76.632,11.098,-77.374C9.979,-78.114,8.885,-80.033,8.664,-81.635C8.445,-83.239,8.277,-84.565,8.287,-84.585C8.301,-84.603,6.978,-85.499,5.355,-86.575C5.355,-86.575,-1.065,-90.831,-1.065,-90.831C-2.69,-91.909,-4.9,-91.459,-5.977,-89.836ZM7.35,-84.04C7.403,-83.542,7.51,-82.765,7.682,-81.501C7.94,-79.618,9.199,-77.44,10.549,-76.545C11.215,-76.104,11.766,-75.782,12.223,-75.573C12.223,-75.573,11.504,-74.487,11.504,-74.487C8.324,-75.196,6.875,-79.338,6.875,-79.338C6.875,-79.338,6.092,-82.43,6.135,-83.479C6.135,-83.479,3.574,-85.178,3.574,-85.178C3.574,-85.178,2.646,-84.756,1.441,-82.942C0.237,-81.126,0.425,-79.089,-1.101,-76.784C-2.628,-74.479,-5.306,-72.983,-5.306,-72.983C-5.306,-72.983,-10.581,-76.479,-10.581,-76.479C-11.753,-77.256,-12.074,-78.84,-11.296,-80.016C-11.296,-80.016,-5.149,-89.288,-5.149,-89.288C-4.372,-90.462,-2.786,-90.781,-1.613,-90.006C-1.613,-90.006,-1.062,-89.639,-1.062,-89.639C-1.062,-89.639,-5.544,-82.877,-5.544,-82.877C-5.544,-82.877,-3.833,-81.741,-3.833,-81.741C-3.833,-81.741,0.651,-88.504,0.651,-88.504C0.651,-88.504,4.807,-85.747,4.807,-85.747C6.053,-84.923,6.92,-84.337,7.35,-84.04Z" /></g></g></g></g></g><g id="i58"><g transform="translate(252.473,313.248)"><animateTransform repeatCount="indefinite" type="translate" attributeName="transform" dur="4s" begin="0s" calcMode="spline" values="252.473 313.248; 252.473 313.248; 282.473 157.248; 282.473 157.248" keyTimes="0; 0.375; 0.458333; 1" keySplines="0 0 1 1; 0.333 0 0.667 1; 0 0 1 1" fill="freeze" /><g transform="scale(0,0)"><animateTransform repeatCount="indefinite" type="scale" attributeName="transform" dur="4s" begin="0s" calcMode="spline" values="0 0; 0 0; 1 1; 0.9 0.9; 1 1; 0.9 0.9; 1 1" keyTimes="0; 0.375; 0.458333; 0.466667; 0.65; 0.841667; 1" keySplines="0 0 1 1; 0.333 0 0.667 1; 0.333 0 0.667 1; 0.333 0 0.667 1; 0.333 0 0.667 1; 0.333 0 0.667 1" fill="freeze" /><g transform="translate(-32.473,92.752)"><g id="i45"><g id="i45"><path fill="url(#i26)" d="M22.273,-88.454C24.752,-84.597,29.754,-83.349,33.727,-85.47C33.727,-85.47,24.32,-100.108,24.32,-100.108C20.736,-97.378,19.796,-92.309,22.273,-88.454ZM28.092,-85.858C26.104,-86.278,24.41,-87.438,23.324,-89.126C22.295,-90.73,21.923,-92.651,22.275,-94.544C22.275,-94.544,23.258,-94.362,23.258,-94.362C22.951,-92.719,23.273,-91.052,24.164,-89.667C25.103,-88.204,26.572,-87.198,28.299,-86.835C28.299,-86.835,28.092,-85.858,28.092,-85.858Z" /></g><g id="i46"><path fill="url(#i27)" d="M25.514,-100.876C25.514,-100.876,34.92,-86.237,34.92,-86.237C38.502,-88.967,39.444,-94.04,36.965,-97.894C34.488,-101.751,29.487,-102.999,25.514,-100.876Z" /></g></g><g id="i46"><path fill="url(#i28)" d="M38.871,-98.181C41.316,-93.671,40.118,-88.038,36.057,-84.919C36.057,-84.919,35.818,-83.64,35.818,-83.64C39.656,-83.244,43.217,-85.855,43.932,-89.712C44.623,-93.452,42.4,-97.048,38.871,-98.181ZM42.881,-89.909C42.584,-88.304,41.687,-86.888,40.359,-85.913C40.359,-85.913,39.854,-86.602,39.854,-86.602C41.006,-87.448,41.783,-88.677,42.041,-90.064C42.312,-91.527,41.986,-93.015,41.121,-94.253C41.121,-94.253,41.822,-94.741,41.822,-94.741C42.818,-93.317,43.193,-91.598,42.881,-89.909Z" /></g></g></g></g></g><g id="i59"><g transform="translate(252.418,313.942)"><animateTransform repeatCount="indefinite" type="translate" attributeName="transform" dur="4s" begin="0s" calcMode="spline" values="252.418 313.942; 252.418 313.942; 337.418 149.942; 337.418 149.942" keyTimes="0; 0.416667; 0.5; 1" keySplines="0 0 1 1; 0.333 0 0.667 1; 0 0 1 1" fill="freeze" /><g transform="scale(0,0)"><animateTransform repeatCount="indefinite" type="scale" attributeName="transform" dur="4s" begin="0s" calcMode="spline" values="0 0; 0 0; 1 1; 0.9 0.9; 1 1; 0.9 0.9; 1 1" keyTimes="0; 0.416667; 0.5; 0.508333; 0.675; 0.841666; 1" keySplines="0 0 1 1; 0.333 0 0.667 1; 0.333 0 0.667 1; 0.333 0 0.667 1; 0.333 0 0.667 1; 0.333 0 0.667 1" fill="freeze" /><g transform="translate(-87.418,100.058)"><g id="i46"><path fill="url(#i29)" d="M92.978,-104.927C92.978,-104.927,89.541,-103.927,89.541,-103.927C89.541,-103.927,88.539,-107.362,88.539,-107.362C88.539,-107.362,82.551,-105.62,82.551,-105.62C82.551,-105.62,83.551,-102.183,83.551,-102.183C83.551,-102.183,80.113,-101.181,80.113,-101.181C80.113,-101.181,81.857,-95.19,81.857,-95.19C81.857,-95.19,85.295,-96.192,85.295,-96.192C85.295,-96.192,86.297,-92.753,86.297,-92.753C86.297,-92.753,92.285,-94.499,92.285,-94.499C92.285,-94.499,91.285,-97.935,91.285,-97.935C91.285,-97.935,94.723,-98.939,94.723,-98.939C94.723,-98.939,92.978,-104.927,92.978,-104.927Z" /></g></g></g></g></g><g id="i60"><g transform="translate(250.392,312.714)"><animateTransform repeatCount="indefinite" type="translate" attributeName="transform" dur="4s" begin="0s" calcMode="spline" values="250.392 312.714; 250.392 312.714; 308.392 133.714; 308.392 133.714" keyTimes="0; 0.458333; 0.541667; 1" keySplines="0 0 1 1; 0.333 0 0.667 1; 0 0 1 1" fill="freeze" /><g transform="scale(0,0)"><animateTransform repeatCount="indefinite" type="scale" attributeName="transform" dur="4s" begin="0s" calcMode="spline" values="0 0; 0 0; 1 1; 0.9 0.9; 1 1; 0.9 0.9; 1 1" keyTimes="0; 0.458333; 0.541667; 0.55; 0.716667; 0.866667; 1" keySplines="0 0 1 1; 0.333 0 0.667 1; 0.333 0 0.667 1; 0.333 0 0.667 1; 0.333 0 0.667 1; 0.333 0 0.667 1" fill="freeze" /><g transform="translate(-58.392,116.286)"><g id="i45"><path fill="url(#i30)" d="M57.252,-123.302C57.252,-123.302,54.312,-122.517,54.312,-122.517C51.369,-121.732,49.606,-118.681,50.391,-115.742C50.391,-115.742,52.867,-106.47,52.867,-106.47C53.181,-105.29,54.394,-104.59,55.576,-104.906C55.576,-104.906,64.935,-107.404,64.935,-107.404C66.117,-107.718,66.82,-108.931,66.504,-110.111C66.504,-110.111,64.029,-119.382,64.029,-119.382C63.244,-122.323,60.195,-124.087,57.252,-123.302ZM65.756,-109.914C65.961,-109.146,65.504,-108.357,64.736,-108.152C64.736,-108.152,55.377,-105.652,55.377,-105.652C54.609,-105.449,53.818,-105.905,53.615,-106.671C53.615,-106.671,53.426,-107.376,53.426,-107.376C53.426,-107.376,64.539,-110.345,64.539,-110.345C64.539,-110.345,62.35,-118.542,62.35,-118.542C62.35,-118.542,51.236,-115.576,51.236,-115.576C51.236,-115.576,51.139,-115.941,51.139,-115.941C50.463,-118.476,51.975,-121.091,54.512,-121.767C54.512,-121.767,57.453,-122.556,57.453,-122.556C59.988,-123.232,62.603,-121.718,63.281,-119.181C63.281,-119.181,65.756,-109.914,65.756,-109.914ZM60.557,-115.287C60.557,-115.287,61.359,-112.273,61.359,-112.273C61.359,-112.273,59.631,-111.814,59.631,-111.814C59.631,-111.814,60.092,-110.083,60.092,-110.083C60.092,-110.083,57.08,-109.281,57.08,-109.281C57.08,-109.281,56.617,-111.007,56.617,-111.007C56.617,-111.007,54.887,-110.546,54.887,-110.546C54.887,-110.546,54.084,-113.556,54.084,-113.556C54.084,-113.556,55.812,-114.019,55.812,-114.019C55.812,-114.019,55.35,-115.749,55.35,-115.749C55.35,-115.749,58.363,-116.554,58.363,-116.554C58.363,-116.554,58.826,-114.824,58.826,-114.824C58.826,-114.824,60.557,-115.287,60.557,-115.287Z" /></g><g id="i46"><path fill="url(#i31)" d="M57.701,-126.132C57.701,-126.132,57.596,-126.527,57.596,-126.527C57.596,-126.527,57.49,-126.921,57.49,-126.921C57.334,-127.511,56.723,-127.86,56.135,-127.706C56.135,-127.706,53.086,-126.892,53.086,-126.892C52.498,-126.734,52.145,-126.125,52.303,-125.535C52.303,-125.535,52.408,-125.142,52.408,-125.142C52.408,-125.142,52.512,-124.746,52.512,-124.746C52.512,-124.746,53.018,-122.853,53.018,-122.853C53.018,-122.853,58.207,-124.242,58.207,-124.242C58.207,-124.242,57.701,-126.132,57.701,-126.132Z" /></g></g></g></g></g><g id="i61"><g transform="translate(251.732,312.09)"><animateTransform repeatCount="indefinite" type="translate" attributeName="transform" dur="4s" begin="0s" calcMode="spline" values="251.732 312.09; 251.732 312.09; 251.732 132.09; 251.732 132.09" keyTimes="0; 0.5; 0.583333; 1" keySplines="0 0 1 1; 0.333 0 0.667 1; 0 0 1 1" fill="freeze" /><g transform="scale(0,0)"><animateTransform repeatCount="indefinite" type="scale" attributeName="transform" dur="4s" begin="0s" calcMode="spline" values="0 0; 0 0; 1 1; 0.9 0.9; 1 1; 0.9 0.9; 1 1" keyTimes="0; 0.5; 0.583333; 0.591666; 0.733333; 0.866667; 1" keySplines="0 0 1 1; 0.333 0 0.667 1; 0.333 0 0.667 1; 0.333 0 0.667 1; 0.333 0 0.667 1; 0.333 0 0.667 1" fill="freeze" /><g transform="translate(-1.732,117.91)"><g id="i46"><path fill="url(#i32)" d="M1.764,-119.976C1.764,-119.976,-1.062,-129.983,-1.062,-129.983C-0.705,-130.108,-0.522,-130.536,-0.645,-130.97C-0.773,-131.421,-1.173,-131.69,-1.558,-131.581C-1.558,-131.581,-7.34,-129.948,-7.34,-129.948C-7.724,-129.837,-7.925,-129.399,-7.797,-128.948C-7.675,-128.514,-7.297,-128.247,-6.926,-128.327C-6.926,-128.327,-4.099,-118.317,-4.099,-118.317C-4.099,-118.317,-7.381,-106.065,-7.381,-106.065C-7.381,-106.065,-6.755,-103.853,-5.286,-104.267C-5.286,-104.267,10.275,-108.665,10.275,-108.665C10.275,-108.665,10.295,-108.669,10.295,-108.669C11.811,-109.099,11.16,-111.395,11.16,-111.395C11.16,-111.395,1.764,-119.976,1.764,-119.976ZM10.105,-109.378C10.105,-109.378,0.872,-117.811,0.872,-117.811C0.872,-117.811,-3.832,-116.481,-3.832,-116.481C-3.832,-116.481,-3.34,-118.323,-3.34,-118.323C-3.34,-118.323,-6.479,-129.431,-6.479,-129.431C-6.479,-129.431,-2.021,-130.689,-2.021,-130.689C-2.021,-130.689,1.117,-119.577,1.117,-119.577C1.117,-119.577,10.463,-111.042,10.463,-111.042C10.522,-110.37,10.435,-109.489,10.105,-109.378Z" /></g></g></g></g></g><g id="i62"><g transform="translate(250.008,312.431)"><animateTransform repeatCount="indefinite" type="translate" attributeName="transform" dur="4s" begin="0s" calcMode="spline" values="250.008 312.431; 250.008 312.431; 206.008 144.431; 206.008 144.431" keyTimes="0; 0.541667; 0.625; 1" keySplines="0 0 1 1; 0.333 0 0.667 1; 0 0 1 1" fill="freeze" /><g transform="scale(0,0)"><animateTransform repeatCount="indefinite" type="scale" attributeName="transform" dur="4s" begin="0s" calcMode="spline" values="0 0; 0 0; 1 1; 0.9 0.9; 1 1; 0.9 0.9; 1 1" keyTimes="0; 0.541667; 0.625; 0.633333; 0.75; 0.875; 1" keySplines="0 0 1 1; 0.333 0 0.667 1; 0.333 0 0.667 1; 0.333 0 0.667 1; 0.333 0 0.667 1; 0.333 0 0.667 1" fill="freeze" /><g transform="translate(43.992,105.569)"><g id="i45"><path fill="url(#i33)" d="M-29.845,-113.139C-30.108,-114.418,-30.764,-115.512,-31.662,-116.326C-31.745,-116.402,-31.827,-116.479,-31.91,-116.549C-33.255,-117.654,-35.065,-118.162,-36.896,-117.787C-36.896,-117.787,-53.502,-114.381,-53.502,-114.381C-56.725,-113.717,-58.814,-110.551,-58.15,-107.33C-57.488,-104.098,-54.323,-102.016,-51.101,-102.682C-51.101,-102.682,-34.495,-106.086,-34.495,-106.086C-33.64,-106.262,-32.873,-106.616,-32.209,-107.098C-30.357,-108.407,-29.348,-110.719,-29.83,-113.061C-29.831,-113.073,-29.837,-113.084,-29.839,-113.096C-29.842,-113.11,-29.84,-113.123,-29.845,-113.139ZM-56.932,-107.578C-57.457,-110.135,-55.799,-112.637,-53.252,-113.158C-53.252,-113.158,-36.645,-116.568,-36.645,-116.568C-35.587,-116.783,-34.548,-116.623,-33.643,-116.189C-33.581,-116.162,-33.522,-116.125,-33.46,-116.092C-33.46,-116.092,-45.283,-113.666,-45.283,-113.666C-45.283,-113.666,-43.605,-105.488,-43.605,-105.488C-43.605,-105.488,-51.352,-103.9,-51.352,-103.9C-53.899,-103.377,-56.407,-105.025,-56.932,-107.578Z" /></g><g id="i46"><g id="i46"><path fill="url(#i34)" d="M-31.176,-106.121C-31.257,-106.062,-31.344,-106.012,-31.427,-105.957C-31.684,-105.451,-32.041,-104.99,-32.509,-104.609C-32.509,-104.609,-44.097,-95.242,-44.097,-95.242C-44.836,-94.644,-45.713,-94.347,-46.594,-94.322C-46.655,-94.322,-46.715,-94.324,-46.777,-94.326C-46.777,-94.326,-38.525,-100.998,-38.525,-100.998C-38.525,-100.998,-40.657,-103.633,-40.657,-103.633C-40.657,-103.633,-50.066,-101.703,-50.066,-101.703C-50.352,-101.642,-50.636,-101.614,-50.916,-101.596C-51.094,-101.356,-51.256,-101.108,-51.386,-100.842C-52.304,-99.074,-52.157,-96.86,-50.836,-95.225C-50.829,-95.217,-50.821,-95.211,-50.814,-95.201C-50.806,-95.191,-50.801,-95.182,-50.793,-95.172C-50.071,-94.279,-49.117,-93.691,-48.087,-93.414C-47.99,-93.389,-47.895,-93.366,-47.804,-93.346C-46.305,-93.026,-44.686,-93.356,-43.409,-94.391C-43.409,-94.391,-31.818,-103.76,-31.818,-103.76C-30.677,-104.684,-30.028,-105.993,-29.899,-107.354C-30.259,-106.887,-30.687,-106.467,-31.176,-106.121Z" /></g></g></g></g></g></g><g id="i63"><g transform="translate(250.214,311.452)"><animateTransform repeatCount="indefinite" type="translate" attributeName="transform" dur="4s" begin="0s" calcMode="spline" values="250.214 311.452; 250.214 311.452; 169.214 107.452; 169.214 107.452" keyTimes="0; 0.583333; 0.666667; 1" keySplines="0 0 1 1; 0.333 0 0.667 1; 0 0 1 1" fill="freeze" /><g transform="scale(0,0)"><animateTransform repeatCount="indefinite" type="scale" attributeName="transform" dur="4s" begin="0s" calcMode="spline" values="0 0; 0 0; 1 1; 0.9 0.9; 1 1; 0.9 0.9; 1 1" keyTimes="0; 0.583333; 0.666667; 0.675; 0.775; 0.891667; 1" keySplines="0 0 1 1; 0.333 0 0.667 1; 0.333 0 0.667 1; 0.333 0 0.667 1; 0.333 0 0.667 1; 0.333 0 0.667 1" fill="freeze" /><g transform="translate(80.786,142.548)"><g id="i46"><path fill="url(#i35)" d="M-73.034,-141.125C-73.261,-140.977,-73.43,-140.771,-73.535,-140.539C-73.535,-140.539,-76.616,-141.3,-76.616,-141.3C-76.538,-141.947,-76.678,-142.626,-77.066,-143.21C-77.671,-144.122,-78.708,-144.572,-79.727,-144.47C-79.727,-144.47,-81.04,-150.798,-81.04,-150.798C-80.901,-150.853,-80.766,-150.919,-80.639,-151.001C-79.735,-151.599,-79.485,-152.818,-80.085,-153.724C-80.683,-154.626,-81.902,-154.873,-82.806,-154.275C-83.709,-153.677,-83.958,-152.458,-83.359,-151.554C-82.963,-150.954,-82.29,-150.646,-81.617,-150.681C-81.617,-150.681,-80.303,-144.347,-80.303,-144.347C-80.548,-144.271,-80.785,-144.159,-81.01,-144.011C-81.644,-143.593,-82.053,-142.961,-82.21,-142.277C-82.21,-142.277,-87.624,-142.939,-87.624,-142.939C-87.642,-143.199,-87.724,-143.461,-87.878,-143.693C-88.353,-144.412,-89.317,-144.607,-90.036,-144.13C-90.753,-143.657,-90.949,-142.693,-90.474,-141.974C-89.998,-141.257,-89.034,-141.062,-88.316,-141.537C-88.009,-141.74,-87.8,-142.033,-87.696,-142.357C-87.696,-142.357,-82.284,-141.691,-82.284,-141.691C-82.295,-141.132,-82.144,-140.568,-81.812,-140.068C-81.527,-139.636,-81.143,-139.312,-80.712,-139.095C-80.712,-139.095,-82.591,-134.113,-82.591,-134.113C-83.047,-134.203,-83.539,-134.12,-83.958,-133.843C-84.798,-133.286,-85.029,-132.156,-84.472,-131.314C-83.916,-130.474,-82.783,-130.241,-81.944,-130.798C-81.103,-131.357,-80.871,-132.49,-81.428,-133.33C-81.589,-133.574,-81.803,-133.765,-82.042,-133.9C-82.042,-133.9,-80.161,-138.89,-80.161,-138.89C-79.405,-138.691,-78.571,-138.8,-77.868,-139.265C-77.32,-139.63,-76.942,-140.148,-76.746,-140.726C-76.746,-140.726,-73.667,-139.966,-73.667,-139.966C-73.67,-139.689,-73.594,-139.411,-73.432,-139.165C-73,-138.515,-72.123,-138.337,-71.472,-138.769C-70.822,-139.199,-70.642,-140.078,-71.074,-140.728C-71.506,-141.378,-72.384,-141.557,-73.034,-141.125Z" /></g></g></g></g></g><g id="i64"><g transform="translate(250.337,310.463)"><animateTransform repeatCount="indefinite" type="translate" attributeName="transform" dur="4s" begin="0s" calcMode="spline" values="250.337 310.463; 250.337 310.463; 265.337 92.463; 265.337 92.463" keyTimes="0; 0.625; 0.708333; 1" keySplines="0 0 1 1; 0.333 0 0.667 1; 0 0 1 1" fill="freeze" /><g transform="scale(0,0)"><animateTransform repeatCount="indefinite" type="scale" attributeName="transform" dur="4s" begin="0s" calcMode="spline" values="0 0; 0 0; 1 1; 0.9 0.9; 1 1; 0.9 0.9; 1 1" keyTimes="0; 0.625; 0.708333; 0.716666; 0.816667; 0.908334; 1" keySplines="0 0 1 1; 0.333 0 0.667 1; 0.333 0 0.667 1; 0.333 0 0.667 1; 0.333 0 0.667 1; 0.333 0 0.667 1" fill="freeze" /><g transform="translate(-15.337,157.537)"><g id="i44"><path fill="url(#i36)" d="M9.135,-154.163C8.481,-154.647,7.56,-154.508,7.078,-153.854C6.594,-153.202,6.731,-152.279,7.385,-151.797C8.037,-151.313,8.959,-151.452,9.441,-152.106C9.925,-152.758,9.787,-153.681,9.135,-154.163Z" /></g><g id="i43"><path fill="url(#i37)" d="M14.08,-150.504C13.426,-150.988,12.503,-150.85,12.021,-150.198C11.539,-149.544,11.676,-148.621,12.33,-148.139C12.984,-147.656,13.905,-147.794,14.389,-148.448C14.871,-149.1,14.734,-150.022,14.08,-150.504Z" /></g><g id="i45"><path fill="url(#i38)" d="M9.904,-152.143C9.904,-152.143,11.924,-150.649,11.924,-150.649C12.045,-150.766,12.175,-150.864,12.318,-150.94C12.318,-150.94,10.066,-152.608,10.066,-152.608C10.035,-152.448,9.98,-152.293,9.904,-152.143Z" /></g><g id="i46"><g id="i45"><path fill="url(#i39)" d="M17.082,-152.493C17.082,-152.493,15.201,-151.126,15.201,-151.126C15.201,-151.126,13.727,-152.217,13.727,-152.217C13.727,-152.217,15.686,-154.184,15.686,-154.184C15.686,-154.184,16.396,-153.659,16.396,-153.659C16.332,-153.813,16.277,-153.971,16.23,-154.131C16.23,-154.131,15.885,-154.387,15.885,-154.387C15.885,-154.387,16.113,-154.616,16.113,-154.616C16.092,-154.729,16.076,-154.844,16.062,-154.961C16.062,-154.961,15.658,-154.555,15.658,-154.555C15.658,-154.555,13.848,-155.895,13.848,-155.895C13.848,-155.895,15.641,-158.317,15.641,-158.317C15.641,-158.317,16.51,-157.684,16.51,-157.684C16.578,-157.825,16.652,-157.965,16.732,-158.1C16.732,-158.1,10.535,-162.616,10.535,-162.616C10.535,-162.616,11.184,-165.116,11.184,-165.116C11.184,-165.116,9.633,-166.264,9.633,-166.264C9.727,-166.555,9.633,-166.886,9.373,-167.079C9.045,-167.319,8.586,-167.252,8.344,-166.924C8.102,-166.598,8.172,-166.137,8.498,-165.895C8.758,-165.704,9.102,-165.711,9.354,-165.885C9.354,-165.885,10.648,-164.926,10.648,-164.926C10.648,-164.926,8.322,-155.956,8.322,-155.956C8.322,-155.956,5.904,-155.102,5.904,-155.102C5.904,-155.102,6.979,-154.307,6.979,-154.307C7.1,-154.424,7.232,-154.52,7.373,-154.6C7.373,-154.6,6.895,-154.954,6.895,-154.954C6.895,-154.954,8.479,-155.514,8.479,-155.514C8.479,-155.514,15.199,-150.544,15.199,-150.544C15.199,-150.544,17.391,-152.137,17.391,-152.137C17.282,-152.252,17.178,-152.372,17.082,-152.493ZM10.408,-162.126C10.408,-162.126,13.076,-160.182,13.076,-160.182C13.076,-160.182,11.699,-157.483,11.699,-157.483C11.699,-157.483,9.605,-159.032,9.605,-159.032C9.605,-159.032,10.408,-162.126,10.408,-162.126ZM8.785,-155.872C8.785,-155.872,9.529,-158.739,9.529,-158.739C9.529,-158.739,11.57,-157.229,11.57,-157.229C11.57,-157.229,10.305,-154.749,10.305,-154.749C10.305,-154.749,8.785,-155.872,8.785,-155.872ZM11.82,-153.627C11.82,-153.627,10.535,-154.579,10.535,-154.579C10.535,-154.579,11.799,-157.059,11.799,-157.059C11.799,-157.059,13.453,-155.835,13.453,-155.835C13.453,-155.835,11.82,-153.627,11.82,-153.627ZM13.621,-156.061C13.621,-156.061,11.928,-157.315,11.928,-157.315C11.928,-157.315,13.307,-160.016,13.307,-160.016C13.307,-160.016,15.412,-158.483,15.412,-158.483C15.412,-158.483,13.621,-156.061,13.621,-156.061ZM12.047,-153.46C12.047,-153.46,13.68,-155.667,13.68,-155.667C13.68,-155.667,15.457,-154.354,15.457,-154.354C15.457,-154.354,13.498,-152.385,13.498,-152.385C13.498,-152.385,12.047,-153.46,12.047,-153.46Z" /></g><g id="i46"><path fill="url(#i40)" d="M23.648,-158.241C22.162,-159.714,19.766,-159.701,18.293,-158.215C16.822,-156.729,16.834,-154.333,18.318,-152.862C19.804,-151.389,22.201,-151.401,23.674,-152.887C25.145,-154.371,25.134,-156.77,23.648,-158.241ZM22.305,-153.151C22.305,-153.151,21.25,-153.932,21.25,-153.932C21.25,-153.932,20.469,-152.877,20.469,-152.877C20.469,-152.877,18.631,-154.237,18.631,-154.237C18.631,-154.237,19.41,-155.292,19.41,-155.292C19.41,-155.292,18.355,-156.073,18.355,-156.073C18.355,-156.073,19.715,-157.911,19.715,-157.911C19.715,-157.911,20.77,-157.131,20.77,-157.131C20.77,-157.131,21.551,-158.186,21.551,-158.186C21.551,-158.186,23.391,-156.827,23.391,-156.827C23.391,-156.827,22.609,-155.77,22.609,-155.77C22.609,-155.77,23.664,-154.991,23.664,-154.991C23.664,-154.991,22.305,-153.151,22.305,-153.151Z" /></g></g></g></g></g></g><g id="i65"><g transform="translate(250.068,310.689)"><animateTransform repeatCount="indefinite" type="translate" attributeName="transform" dur="4s" begin="0s" calcMode="spline" values="250.068 310.689; 250.068 310.689; 327.068 103.689; 327.068 103.689" keyTimes="0; 0.666667; 0.75; 1" keySplines="0 0 1 1; 0.333 0 0.667 1; 0 0 1 1" fill="freeze" /><g transform="scale(0,0)"><animateTransform repeatCount="indefinite" type="scale" attributeName="transform" dur="4s" begin="0s" calcMode="spline" values="0 0; 0 0; 1 1; 0.9 0.9; 1 1; 0.9 0.9; 1 1" keyTimes="0; 0.666667; 0.75; 0.758333; 0.833333; 0.916667; 1" keySplines="0 0 1 1; 0.333 0 0.667 1; 0.333 0 0.667 1; 0.333 0 0.667 1; 0.333 0 0.667 1; 0.333 0 0.667 1" fill="freeze" /><g transform="translate(-77.068,146.311)"><g id="i46"><path fill="url(#i41)" d="M70.039,-139.97C70.039,-139.97,70.121,-141.023,70.121,-141.023C70.121,-141.023,70.896,-141.718,70.896,-141.718C70.896,-141.718,71.113,-145.716,71.113,-145.716C71.113,-145.716,82.019,-155.499,82.019,-155.499C82.019,-155.499,81.709,-155.847,81.709,-155.847C81.709,-155.847,82.281,-156.362,82.281,-156.362C82.281,-156.362,82.893,-155.685,82.893,-155.685C82.893,-155.685,83.416,-156.153,83.416,-156.153C83.416,-156.153,81.721,-158.042,81.721,-158.042C81.721,-158.042,82.293,-158.558,82.293,-158.558C82.293,-158.558,90.144,-149.806,90.144,-149.806C90.144,-149.806,89.57,-149.292,89.57,-149.292C89.57,-149.292,87.875,-151.181,87.875,-151.181C87.875,-151.181,87.352,-150.71,87.352,-150.71C87.352,-150.71,87.961,-150.032,87.961,-150.032C87.961,-150.032,87.387,-149.517,87.387,-149.517C87.387,-149.517,87.021,-149.927,87.021,-149.927C87.021,-149.927,76.119,-140.142,76.119,-140.142C76.119,-140.142,72.416,-140.224,72.416,-140.224C72.416,-140.224,71.539,-139.44,71.539,-139.44C71.539,-139.44,70.48,-139.495,70.48,-139.495C70.48,-139.495,64.424,-134.064,64.424,-134.064C64.424,-134.064,63.992,-134.544,63.992,-134.544C63.992,-134.544,70.039,-139.97,70.039,-139.97ZM71.691,-141.069C71.691,-141.069,75.809,-140.98,75.809,-140.98C75.809,-140.98,86.426,-150.505,86.426,-150.505C86.426,-150.505,82.529,-154.845,82.529,-154.845C82.529,-154.845,77.977,-150.761,77.977,-150.761C77.977,-150.761,80.732,-147.686,80.732,-147.686C80.732,-147.686,80.158,-147.173,80.158,-147.173C80.158,-147.173,77.402,-150.243,77.402,-150.243C77.402,-150.243,76.893,-149.786,76.893,-149.786C76.893,-149.786,78.209,-148.315,78.209,-148.315C78.209,-148.315,77.635,-147.802,77.635,-147.802C77.635,-147.802,76.316,-149.271,76.316,-149.271C76.316,-149.271,75.871,-148.872,75.871,-148.872C75.871,-148.872,78.629,-145.798,78.629,-145.798C78.629,-145.798,78.055,-145.282,78.055,-145.282C78.055,-145.282,75.297,-148.356,75.297,-148.356C75.297,-148.356,74.854,-147.958,74.854,-147.958C74.854,-147.958,76.17,-146.487,76.17,-146.487C76.17,-146.487,75.596,-145.972,75.596,-145.972C75.596,-145.972,74.279,-147.442,74.279,-147.442C74.279,-147.442,73.832,-147.042,73.832,-147.042C73.832,-147.042,76.59,-143.97,76.59,-143.97C76.59,-143.97,76.016,-143.454,76.016,-143.454C76.016,-143.454,73.26,-146.524,73.26,-146.524C73.26,-146.524,71.922,-145.327,71.922,-145.327C71.922,-145.327,71.691,-141.069,71.691,-141.069Z" /></g></g></g></g></g></g></svg>